<?xml version="1.0" encoding="UTF-8"?>
<svg id="Warstwa_1" data-name="Warstwa 1" xmlns="http://www.w3.org/2000/svg" viewBox="0 0 1518.69 381.52">
  <defs>
    <style>
      .cls-1 {
        fill: #7c2d85;
      }

      .cls-2 {
        fill: gray;
      }
    </style>
  </defs>
  <g>
    <g>
      <path class="cls-1" d="M610.21,378c-2.26-4.44-5.58-.97-11.6-4.45-3.18-1.84-11.58.46-10.67-2.79,1.21-4.33,5.76-6.46,9.23-8.34,1.94-1.06,3.46-1.94,5.64-2.45l9.19-2.14,13.52-1.45c4.72-.51,7.65-9.38,9.08-14.93,1.11-4.32,2.35-8.6,1.31-13.08-1.85-7.97-6.39-4.31-17.82-7.51-2.18-.61-4.6-.63-6.83-.37l-8.13.92c-2.28.26.64,3.96-1.59,7.56l-4.85,7.82c-1.93,3.12-4.36,6.51-4.33,10.56.02,2.18,3.26,3.22,4.53,4.31,2.39,2.03,2.96,5.01,1.67,7.44-.54,1.02-1.47,1.28-2.11,1.62-1.15.61-1.91-.63-2.97-.89-4.47-1.12-9.35.33-12.84,3.16-3.35,2.71-6.76,4.28-10.69,5.93-5.4,2.27-10.98,4.27-16.97,3.37l-5.3-2.02-9.52-.81c-4.08-1.24-7.78-3.38-12.15-3.05-1.49.11-2.7-.41-3.18-1.85-.82-2.47,5.24-5.18,8.35-7.03l8.6-5.1c4.35-1.73,9.08-1.11,13.68-1.37l12.76-.73c5.37-.31,10.08-6.14,11.52-11.03l3.06-10.37c1.16-3.94-4.82-5.7-8.68-9.43l-25.36-6.77c-8.76-2.34-17.46-4.41-25.4-8.89-9.27-5.22-18.76-9.77-27.02-16.39-11.66-9.34-21.34-21.96-26.37-35.82-4.6-12.67-5.35-26.09-3-39.34l3.4-11.87c1.34-4.68,3.79-8.34,6.68-12.23,2.6-3.5,4.49-7.63,8.83-9.9,1.22-5.81,4.05-11.03,7.16-16.4,2.36-4.07,4.26-8.17,7.21-11.71,10.08-12.07,23.66-19.59,38.73-23.09l26.39-6.11c11.58-2.68,21.95-7.65,31.14-15.24,3.69-3.05,7.42-5.89,9.79-10.27,8.49-15.66,3.55-32.87-8.74-44.85-3.01-2.93-6.67-4.74-10.27-6.98-6.1-3.8-13.25-6.28-20.45-7.24l-13.69-.82c-10.22-.62-21.75,7.54-31.99,9.82-3.95.88-8.02.18-11.97.67-5.53.69-10.61-1.07-16.14-1.15l-13.14-.18-22.81-1.5c-4.09-.27-7.84-1.23-12.03-1-1.29.07-2.56-.79-3.05-1.77-.44-.9-.29-2.29.7-3.29l4.25-4.28c1.76-1.78,15.65-4.46,21.91-5.62,5.45-1.01,10.66-3,14.51-7.26.97-3.92,2.44-7.72,5.11-10.76,3.07-2.9,6.77-4.1,10.45-5.59,10.52-4.24,21.54-4.99,32.44-1.22,4.09,1.41,7.96,2.93,12.24,3.67l22.09,3.81c5.49.95,10.72.45,16.16,1.9,6.45,1.72,13.27,2.27,19.07,5.68l11.14,6.55,9.31,8.45c4.35,3.96,8.58,7.69,11.91,12.7,2.29,3.46,5.23,6.52,6.5,10.53,2.27,7.15,3.69,14.51,4.29,22.04.55,6.82-.6,13.07-2.25,19.49-1.01,3.91-7.61,13.91-10.99,17.78-6.72,7.69-14.75,14.23-23.88,18.81-9.2,4.62-18.64,6.67-28.16,9.69l-20.48,6.48c-4.83,1.53-9.04,3.81-13.23,6.78-5.11,3.62-9.19,13.43-7.95,15.67.63,1.14,1.69,2.18,3.47,1.98l4.5-.51c5.62-1.96,11.02-3.24,16.78-4.34l6.7-1.29c8.67-.33,17.04.34,25.55,1.19,6.8.68,13.14,2.15,19.66,4.23,3.94,1.26,7.95.78,11.95.2,10.58-1.55,29.96-.04,40.28,2.62,6.68,1.72,13.41,2.12,20.2,3.28,5.31.89,10.4,1.76,15.27,4.21,7.25.76,14.4,1.55,21.5,3.74,1.29.65,2.4,2.92,4.64,2.08,2.8-1.06,5.12,1.21,7.63,1.45l11.73,1.12c2.24.21,3.95,1.21,6.43.97,1.59-.16,2.52,1.69,2.29,3.09-.2,1.22-1.39,2.02-3.05,3.1l17.85-.22,12.02.87c1.16.08,2.76-.58,3.77.27.64.54,1.64,1.58,1.69,2.83-.73,2.67-2.84,5.06-5.1,7.03-7.86,6.85-16.44,12.45-25.54,17.07,1.73,1.97,3.69,2.99,5.73,4.35,17.13,11.41,26.39,9.97,28.06,10.79,1.72.84,2.86,3.19,2.79,4.83-.08,2.09-.94,4.32-2.68,5.66l-8.05,6.18c-2.55,2.87-5.17,5.01-8.13,7.41-1.49,1.21-1.71,2.66-4.32,2.67-1.32,0-3.34,1.37-4.75,1.99-.28.12.4,1.13.84.92.28-.13.87-.36,1.17-.3.93.2,1.2,1.19,1.24,1.81.22,3.78-17.68,12.75-25.57,13.27-.79-.62-.9.95-.05.52,1.02.19.88,1.04.21,1.52-7.95,5.89-16.9,9-26.34,11.05l-11.53,3.33c-3.64,1.05-6.69,2.65-10.62,2.42-.91-.05-2.92.15-3.68.93.3,3.63-9.33,3.69-16.08,5.04-3.73.75-7.06,1.95-10.98,1.67-2-.14-2.81,2.34-3.05,3.73l-.95,5.29c-3.04,3.89-4.4,7.93-5.68,12.71-1.78,6.7-4.58,13.03-5.03,20.04-.25,3.83,10.5,3.13,8.35,11.99-.27,1.12-1.22,1.69-1.91,1.87-1.37.36-4.74-2.31-11.71-.38-3.27.9-5.69,4.04-8.19,6.26-4.66,4.15-10.66,2.75-17.55,5.9-1.5.68-2.89.81-4.23.13-1.13-.57-1.76-1.61-2.49-3.06ZM716.07,243.53c-1.69.63-3.29.6-4.87,1.85,7.21,2.32,9.83-1.13,9.6-1.12.33-.02,1.01.32,1.4.46,5.51,1.94,8.82.46,10.06,1.77,1.55,1.63-5.72,1.44-11.34.13-.64-.38-1.37.27-.84,1.32l-6.35,1.73c-.06.7,1.04,1.28.89,1.72-.11.36-.65,1.3-1.22,1.37l-10.02,1.3c-3.76.49-6.78-.45-9.72-2.73-1.99-1.54-6.03.1-8.49.49l-10.35,1.65c-.08.55.25,1.21.36,1.55-2.58,2.33-5.9,3.32-8.97,4.8-5.26,2.53-10.38,4.36-15.9,5.86-2.61.71-5.14,1.45-7.76,2.92,3.98.87,7.7-.31,11.57-1.56,1.84-.59,3.56-2.1,5.81-.99-6.86,4.19-14.92,6.91-21.32,2.65-14.6,2.57-29.34,2.56-43.92-.59-5.01-1.08-9.13-4.01-13.84-6-4.47-1.89-8-5.24-11.93-8.2-4.83-3.64-7.33-9.09-9.4-14.62-2.81-7.51-2.57-15.27-.47-23.11l2.59-9.65c.58-2.14-.24-4.35-1.86-5.44-3.44-2.32-7.12.44-8.07.02-.52-.23-1.31-1.19-1.27-2.02.14-2.68,2.08-4.28,4.65-4.83,5.01-1.08,11.07,1.82,12.56,7.12,2.6,9.25-4.92,18.58-2.63,30.42.84,4.31,2.56,9.56,5.61,13.02,8.24,9.33,19.51,14.62,31.31,17.46,1.46.35,2.6-.19,3.84-.12l13.69.85-6.36-2.41c-1.88-.71-4.27-.96-4.91-3.71,7.22,2.73,13.92,4.08,21.28,4.35-3.92-4.45,6.65,1.12,15.23-2.13-1.7-.77-3.3.05-4.08-2.11l6.8.31c.89.04,2.65,1.67,3.82.66,1.43-1.24,2.81-.82,4.45-1.49l5.71-2.32c1.53-.62,2.74-2.49,3.16-4.23-3.61-.05-6.69.43-10.04,1.68l7.75.24c-1.45,2.21-4.21,1.01-5.77,1.59-4.11,1.54-7.76,1.8-12.03.34-.55-.19-1.09-.29-1.41-.63-2.43-2.56,3.83-.15,8.96-.41-4.49-1.94-7.2-2.05-3.52-3.55-.72-.68-2.06-1.3-2.98-1.18-.9.11-2.32,1.22-2.59,2.04-.75,2.27-2.61,1.78-4.15,2.45l-5.92,2.56c-3.3,1.43-6.58,2.03-10.27,1.36l-11.11-2.01c-.94-.17-1.26-1.28-1.25-1.81.01-.6,1.52-1.35,2.03-.97,3.42,2.52,6.48,1.74,9.93.15l9.78-1.6c-1.77-3.75,4.67-.28,7.98-4.12-4.33-.57-9.95-1.15-10.3-2.64-.06-.27.54-1.02,1.01-.94,7.97,1.25,14.14-1.74,14.65,3.82,2.88.28,5.28,1.93,8.47,1.28-5.36-1.44-8.26-3.96-6.22-4.49,1.09-.28,10.63,5.51,17.32,2.92-5.01-1.5-11.16-3.08-9.48-4.78,1.31-1.32,12.98,6.44,17.04,1.73-4.75-1.05-10.02-2.42-8.94-3.91.35-.48.81-.59,1.44-.41l10.35,3c2.77.81,5.83,1.84,8.35-.88l-6.15-.97c-.71-.11-1.37-.19-1.86-.76-.27-.31-.28-1.49.23-1.45l13.69,1.06c3.33.26,6.1-.28,9.14-1.42,1.33-.5,2.99-.16,4.03-1.85-.93-.63-2.04-.78-3.48-.32-1.21.39-2.47-1.6-1.78-2.35l10.9.84c2.77.21,4.67-.68,6.99-1.81,2.87-1.39,6.09-1.27,8.86-3.54-4.69-.8-11.4-1.29-11.6-3.11-.3-2.68,10.5,3.33,18.97-.11-1.8-2.53-6.99.4-8.1-3.97l7.85,1.15c3.79.55,7.45.73,10.72-1.98-2.77-.39-4.66-.02-6.62-1.58,1.2-1.2,2.54-1.07,3.88-.94,6.52.65,12.49-.64,17.86-4.07-1.63-.17-3.05.23-4.22-.63-.5-.37-.49-1.17-.27-1.45.58-.75,3.63.6,8.39-1.07,2.71-.95,5.49-1.03,7.77-3.04-8.77.16-17.27,0-25.39,2.28-3.82,1.08-7.88,1.32-11.56,2.61-11.82,4.16-23.01,9.14-35.43,11.8-9.43,2.31-18.33,4.25-27.78,4.82-6.82,5.57-14.97,8.62-23.7,9.03l-13.76-.03c-3.34,0-6.27-1.05-8.79-2.59-8.64,4.03-26.04,2.41-23-.26.56-.49,10.53-2.18,15.21-2.04.67.02,1.44-.68,1.5-1.1.04-.33-.39-.95-.75-1.62l6.66-.93c2.11-.29,3.92-1.85,5.46-3.2-1.71-.54-3.92-.23-4.63-1.62.2-1.78,7.54-1.51,8.76-.16,1.67,1.83.17,4.81-1.58,6.05l-4.8,3.42c5.3,1.34,10.13,1.8,15.46.89l-5.42-2.62c-.55-.27-.67-.82-.42-1.13.59-.74,5.8.72,7.77,2.25.66,1.18,2.2,1,2.9-.38-.56.12-1.2.47-1.91-.17.14-.42,1.18-.6,2.13-.7-3.99-2.88-10.85-2.16-8.67-5.4,12.54,4.26,7.05.73,7.18-.46.04-.4.7-.63.95-.47.21.13.92.15.8,1.16,4.92,1.54,10.31,1.67,15.57.31.48-.12.53-.75.09-.97-2.78.06-6.55.1-8.79-1.9.26-1.5,2.69-1.89,4.07-1.22,7.89,3.79,12.94-4.1,13.99,2.73l19.71-4.5,6.83-1.24,9.57-3.61c1.02-.16.72-1.18-.38-1.08-9.85,4.82-19.54,1.74-16.2.35.41-.17.7-.43,1.37-.29,5.85,1.2,11.17.52,10.21-1.11-.16-.27-.72-1.03-.44-1.62l5.44.44c4.15.33,8.36,1,12.21-1.03.93-.49.52-1.5-.5-1.15-1.91.64-3.85,1.08-5.38-.69,4.82-2.86,12.11-.12,17.27-4.43-1.52-.33-2.71.19-3.65-.95,2.29-3.97,9.68.17,14.98-5.83-4.45-.41-8.44-1.22-12.35-.29l-17.36,4.15-27.74,7.7-25.86,3.39-8.06-.05c-6.28,3.93-13.38,6.01-20.76,6.54l-8.37.6c-5.5.4-10.88-.74-15.26-4.3,5.48-.94,10.63,1.47,16.97.44l10.37-1.69c-.6-.61-1.49-.84-2.02-1.05-.26-.1-.38-.71.26-1.19,3.04.54,5.95.95,8.61-.36-2.25-.18-4.65.45-6.28-1.3,1.92-1.93,4.85-.29,6.77-1.15l13.4-6.04c-6.97-1.16-12.76.14-19.88-2.3-.57-.19-1.2-.51-1.17-1.09.09-1.75,11.25.24,18.23-1.37-2.76-2.1-7.78-1.95-6.3-4.07.91-1.29,7.22,3.6,19.77.27l2.51,1.01,2.06-1.21c3.78-2.23,7.97.19,13.89-2.08-1.47-1.04-2.92-.46-4.08-.9-.56-.22-.1-1.51.61-1.59,5.79-.63,9.06,1.48,15.02-.93,1.17-.47,3.02,0,4.01-1.45-7-1.97-13.67-3.32-20.47-2.48l-12.5,1.54c-1.02.13-2.27-.72-2.83.91,3.83.42,7.11-.15,10.73-.97.42.18.84.35,1.1.32.35-.04.65,1.13.12,1.26-6.33,1.5-12.67,2.9-19.38,2.96-5.67.05-10.99-1.9-16.56-3.18-2.34.67-4.67.4-6.45-1.41-.72-4.27,4.1-.68,12.2-1.64l17.51-2.07c.84-.1,1.77-.44,2.54-1.27l-7.85-1.64c-3.98-.83-7.64-.42-11.68-.48l-18.85-.27s.02.27.3.38l5.85.76c.73.09,1.11.83.96,1.24-.72,1.89-9.58-.92-15.64.52l-13.39,3.17c-4.75,1.12-10.29-.37-14.82-2.61-.09-1.24,1.01-2.62,1.82-2.78.74-.15,2.39-.2,2.35,1.12.47.93,1.62.61,2.96,1.08l15-4.47c-2.91-.1-4.83-.05-7.41-.54l-6.26-1.18c-4.32-.82-8.89-1.9-13.49-1.78l-11.63,3.48c.21-2.14,2.34-2.52,3.75-3.56-1.44.33-2.96-.38-3.86-.39-3.81,1.94-5.84,5.58-9.13,3.7,1.19-1.6,2.71-1.92,4.4-3.22-3.99-.65-8.09.26-11.25,2.88-1.71,1.42-2.8.42-4.37.13-2.88-.53-5.65,2.82-8.39,3.1-2.47.25-4.85-.34-7.62.57-2.4.79-5.58-4.79-8.41-2.2-.71.65-1.84.62-2.6.38-.6-.19-1.83-1.77-.9-2.1l3.72-1.31c-1.23-.72-2.31-2.05-3.63-2.15-.8.28-1.54.18-1.94-.35-.24-.31,1.43-3.4,2.43-2.92.65.31.9,1.2,1.45,2.18,1.17-3.15-1.29-5.32.22-7.65l4.04-6.25c.48-2.02-.54-4.4,1.82-6.03.67.87.69,1.97.42,3.21,3.76-1.89,1.49-7.68,4.19-5.9,1.62,1.07,2.34-1.65,3.18-2.17,5.96-2.09,5.87-8.2,7.92-4.09,5.4-1.19,7.5-6.28,8.93-3.34,4.11-.22,4.9-6,6.18-1.29,2.31-.32,4.6-3.07,6.69-2.84,4.44.49,6.89-2.78,9.63-5.99.94,1.74-.35,2.76-1.4,4.02,1.74.67,5.1-3.65,7.55-6.6.98,1.79-.08,3.25-1.46,4.63,4.3.79,5.45-5.01,8.91-7.79.34,2.22-1.09,3.67-2.23,5.66,6.23.48,6.8-7.15,10.49-10.09.46,2.96-1.46,4.78-2.79,7.16,3.72.47,6.16-8.14,8.86-12.91,1.02,3.24-.51,5.58-1.78,8.62,1.42.4,2.53-.76,3.12-2.11l3.49-7.94c.18-.42.56-.43.84-.37.39.09.67.43.53.95l-1.41,5.24c2.42-.74,4.17-2.68,4.5-4.74-.66-.28-1.46-.8-1.41-1.32.03-.39.64-.91,1.07-1.38l3.27-3.63c.98,1.15.64,2.24.73,3.82,4.89-3.6.83-10.5,6.32-7.49,3.6-4.51,1.74-10.65,3.12-15.47,1.63,1.43,1.47,3.15,1.44,5.12,3.96-2.39-1.42-12.17.83-12.71,1.31-.32,1.24,1.55,2.32,3.45,1.1-7.09-4.08-12.08-3.02-13.86.31-.52.86-.9,1.51-.2.35.38.51.61.78,1.36.25.78,1.17.39.52-.16-.64-5.21-2.45-9.86-3.93-14.56-.73-2.31-1.39-3.64-2.82-5.5-4.02-5.25-7.57-10.97-12.59-15.39-1.22-1.07-2.58-1.81-3.82-3.16-3.33-3.61-8.13-5.54-11.92-8.52-3.68-2.89-7.53-3.62-11.89-4.88-4.3-1.24-8.12-2.39-12.68-2.75-5.13-.41-10.09-2.47-15.44-1.51-2.46-1.62-5.14-2.11-8-1.82l-7.22-.84c-6.3-1.32-12.27-3.17-18.45-5.02-3.67-1.1-7.14-1.28-10.92-.81-1.03.13-2.51-1-3.49-.83l-10.91,1.99c-5.72,1.04-7.14,9.25-8.8,7.32-.33-.38-.15-1.68-.56-2.53l-5.43,9.32c4.02,2.25,7.04-4.92,8.32-2.68,2.12,3.72-5.42,7.56-5.99,11.18-.3,1.91,1.83,2.53,2.86,3.52,4.02,3.86,9.59,5.79,14.9,4.59-.79-.93-1.13-1.48-.94-1.83.18-.32.94-.77,1.41-.45l4,2.7c.62.42,1.17.05,1.54-.34.21-.22.32-.44-.1-.61l-1.03-.4c-.71-.28-1.12-.64-1.52-1.11-.22-.26.23-1.42.65-1.32,2.55.61,4.78,2.58,8.01,1.6l-4.62-1.78c-.71-.27-.81-.96-.64-1.35.14-.32.67-.71,1.16-.57l7.29,2.19c1.33.4,2.76.38,3.77-.52-2.03-.72-3.61-1.1-4.98-2.38-.57-.54.04-1.41.52-1.38,1.79.11,5.04,3.79,8.44,2.1l-5.43-1.48c-.58-.16-.31-1.25.09-1.52,1.91-1.28,6.52,1.99,11.09,1.18-.6-1.65-3.65-.94-3.86-2.8-.35-3.02,5.29,1.98,9.55.64l-5.89-2.79c-.4-.19.48-1.29.89-1.2l1.38.28c3.79.76,6.93,2.77,11.12,2.33-2.29-1.92-5.2-1.73-4.2-4.33,5.84,1.51,8.71,6.18,11.5,4.01-2.55-1.46-5.97-2.72-7.97-5,3.01-3.93,6.47,4.85,13.81,5.72.11-1.12-.52-1.54-.68-1.9-.13-.28.48-.89.79-.86,2.11.21,4.45,4.35,8.99,3.97-1.56-1.57-3.26-2.07-4.53-4.1,1.73-.93,2.83.21,3.96,1.08l7.17,5.54c.42.32,1.09-.18,1.09-.45,0-.81-4.69-3.63-4.96-6.95,5.33,1.5,7.02,8.71,10.38,9.02-1.06-1.02-.57-2.84.26-2.78l5.75,7.37c.41-2-1.82-4.57-.1-5.2,1.83-.67,2.31,6.26,7.59,9.72.27-.88.19-1.5.2-2.31s.84-1.18,1.13-.92c.94.83,1.29,5.05,3.74,8.35l1.38-3.35,2.42,7.55.9-1.64c.27-.5.89-.38,1.24-.01.66.71.22,3.95,1.33,7.23.75-.58.96-1.68,2.56-2.12-.22,3.9.04,6.97,1.56,10.07.44-.67.66-1.27,1.82-1.32l-.09,14.86c-.05,7.78-2.67,15.04-7.26,21.32-1.36,1.86-2.29,4.09-4.62,5.11-2.76,1.22-4.14,3.83-6.4,5.6-12.18,9.54-27.06,13.62-41.9,17.1l-11.54,2.71c-24,5.63-40.61,16.9-49.99,40.51-.31.97.55,1.39,1.08.48.38-.71,1.05-1.11,1.35-.85,1.32,1.16-1.35,6.1-2.55,5.88-.35-.06-.65-.41-1.15-1.06l-2.18,4.62c-1.01,2.13-4.2,3.02-4.26,5.5,2.01-1.65,3.22-3.2,5.64-2.48-1.14,1.1-1.98,1.79-2.06,2.98,1.85-.13,1.59,1.29,1.33,2.23-.17.64-1.09.89-1.57,1.68l-2.57,4.25c-1.97,2.13-4.01,4.01-4.42,7.12.89-.75,1.69-1.38,2.74-1.22.3,4.11-4.62,8.1-1.43,12.7l1.72-4.47c.28-.72.92-.85,1.28-1.04,2.33-1.22-1.25,6.6.77,13.2-3.38-.06-2.81-3.75-3.89-4.89-1.66-1.75-3.25-2.57-4.37-5.48-.27,3.35.12,5.98.43,8.96l.91-1.58c.37-.65,1.05-.31,1.16.1.06.22.49.84.46,1.2l-.85,10.49c-.08.94.17,1.52.53,2.01.25.35,1.36.67,1.59.34l.37-5.96c.05-.78.53-1.18,1.12-1.09,1.9.28.14,4.42,1.64,7.97.84,1.99,2.03,4.2,4.66,3.91-.8-2.88-1.29-5.66.21-7.8.37-.53,1.53.11,1.56.51.16,2.04-2.83,7.01,4.13,10.34.44-.77,1.37-1.19,1.8-.78l1.25,1.15c.5.46,1.37.29,1.63.6.24.28.17,1.04-.08,1.22-1.61,1.16-3.31-.37-4.61-.58-2.07-.32-3.85,0-5.18-2.2-2.68.38-4.75-1.14-7.24-2.34-.4-1.96-2.85-1.77-3.85-2.46-4.4-4.07.44-9.93-3.3-13.58l-.63-5.11c-2.13,4.7-1.87,9.62-.78,14.51,2.34.7,3.21,2.61,2.61,5.06.42.44.58.77.65.97.22.64.92.09.74-.08-.57-.51.22-1.14.42-.97,3.28,2.83.93,9.71,4.64,12.73.07-1.9-.55-3.71,1.29-4.87.97,3.68,2.06,6.89,3.99,9.83l-1.54.6c-.21.08-.05.54.23.81,1.61,5.28,2.64,9.66,8.25,10.3-1.69-5.28-6.27-9.5-5.81-14.46.06-.7,1.23-.95,1.47-.45.82,2.67,1.38,5.48,3.52,7.24-.57-1.52-1.79-3.08-.24-4.72,1.55,3.36,2.63,6.46,6.12,8.01-.65-4.39-3.8-7.57-1.72-9.47,2.57,3.74,2.93,8.94,8.06,10.12,1.43.33,3.11.19,4.2,1.94-1.41,1.18-2.88.49-4.27.53-3.47.09-6.2-.52-8.84-2.64-.56-.45-2.04.1-1.84.57.89,2,1.57,3.67,3.08,5.4,4.48-1.62,3.18,4.14,8.75,7.58,1.25.77,2.36,1.79,4.23.18-3.25-2.35-7.26-6.75-6.09-8.02,1.57-1.71,7.83,11.2,15.8,9.33-3.06-1.8-5.79-4.24-7.55-7.08.27-.72,1.69-.86,2.11-.19,1.17,1.85,3.04,2.69,4.51,4.06,2.33,2.17,4.67,3.53,7.62,2.47-2.53-2.01-5.5-3.29-6.25-6.73,3.96,2.78,6.94,5.76,11.03,7.96l6.6-.74c.75-.08,1.45.16,1.57.67.07.29-.44,1.03-.81,1.08l-7.77,1.09,6.77,4.8,9.24-1.82c1.91-.38,3.89-1.15,6.04-.06-1.68,1.55-3.69,1.49-6.15,2.3,3.17,2.77,7,4.78,11.13,5.1-.21,1.75,1.15,2.33,1.99,2.18l2.17-.38.4,1.74c.09.4,1.18.35,1.51.49l8.13,3.5c-.69,1.44-1.62,1.47-2.9,1.55.49.92,1.52.77,2.33,1.16-.06.49-.05,1.64.36,1.58l1.54-.23c1.53.8,3.58,1.9,5.79,1.53l-6.28-6.26c.57-.45,1.06-1.09.75-1.36l-.83-.71c-4.37-2.05-11.78-6.28-11.33-7.38.08-.2.59-.67.97-.44,5.67,3.4,11.33,6.19,17.71,8.23-.06-1.16-.84-2.28-1.55-2.72-3.51-1.21-7.5-2.09-9.76-5.75l8.97,3.17c.93-1.73.01-3.52,2.07-3.96.53-.11,1.37.45,1.75,1.22l3.03,6.12c2.22,4.49,5.29,8.45,10.11,11.14-.73-2.75-3.6-4.07-4.92-6.5l-.92-1.7c-.24-.44.33-1.47.92-1.16,2.95,1.55,4.16,8.35,12.07,10.78l-5.85-6.83c-.73-.85.74-2.26,1.08-1.81,3.24,4.27,6.47,7.89,10.99,10.39,6.6,3.66,14.94,8.29,22.28,9.47-.42-2.5-7.16-2.71-5.37-5.01.44-.57,1.23-.95,2-.61l5.24,2.31c1.71.76,3.94-.8,6.07.65-1.39,2.21-3.83,1.68-6.38.84.96,3.21,4.1,4.62,6.83,4.13.37-.07.82-.99,1.14-.89.94.28.96,1.98.6,2.18l-3.34,1.84c3.52,3.69,5.27.21,6.49.75.45.2,1.32.87.82,1.52-.24.31-.9.96-1.49,1.02l-5.48.61c.58,2.1,2.52,2.49,4.37,2.04,2.91-.7,2.78-4.29,6.08-7.99.59-.66-.37-2.87-.09-3.69.81-2.4.42-4.61-.2-6.96l-2.26-8.66c2.44.7,2.31,2.66,3.08,4.25,1.56-5.15-5.74-7.8-1.39-10.81-2.4-2.55-3.27-5.22-4.68-8.24-.92-1.96-2.95-3.53-1.92-6.21,2.33.81,4.46,2.46,5.93,4.49,3.19,4.39,8.97,4.86,10.23,5.37,2.04.82,3.65,2.22,5.92,2.59,4.27.71,7.93,5.87,15.84,7.33l3.29-.13c1.3.55,2.59,1.03,3.71-.09l-11.48-3.7-8.59-4.48c-1.7-.89-3.19-1.57-4.07-3.49-5.12.04-15.28-5.92-15.47-8.17-.03-.33.98-1.29,1.22-1.03,1.92,2.02,4.39,2.97,6.64,4.4,3.14,1.99,6.7,3.43,10.29,3.81.73,1.58,2.01,2.69,3.63,3.42,3.33,1.5,8.79,5.89,10.29,2.44,1-2.29-5.05-2.78-4.22-5.51,1.41-.78,3.5.66,4.68,1.37l7.48,4.51c-.03-.68.66-1.92,1.15-1.71,6.35,2.69,12.77,4.37,19.57,3.64.64-.07,1.06-.16,1.06-1.01-6.8-1.57-14.09-2.76-19.85-6.66-1.16-1.5-2.55-4.57-5.29-4.14-2.41.37-3.85-1.12-5.5-2.41-2.17-1.7-5.36-1.78-7.21-4.15,2.77-1.04,4.48.71,6.67,1.87.98.52,2.76.14,3.59,1.68l1.87-2.03c2.85,1.95,5.64,3.44,9.17,3.63,1.15.66.9,1.55-.61,2.01,8.26,4.81,18.12,6.36,28.03,5.98,2.6-.1,5.01-.27,7.06-1.79-6.81-.68-15.5-.29-19.15-4.53,3.73-1.12,6.82,2.02,10.03,1.32-5.91-1.5-11.04-4.55-16.19-8.25-1.3-.94-2.8-1.84-3.18-3.58,2.57-1.15,3.84,1.27,5.61,2.14,5.9,2.93,12.2,4.36,18.65,5.58,2.5.47,4.86,1.55,7.31.84.27-.08.81-.6.72-.78-.37-.74-5.72-.24-8.56-3.86-.44-.56.41-1.29.88-1.19,2.65.58,3.76,1.46,5.14.41,7.16,1.61,14.22,1.19,21.46.47,1.07-.36,1.9-.74,2.31-1.88-5.35.01-10.06-.87-14.98-2.58l-8.57-2.97c-5.26-1.82-10.31-3-15.37-5.28-2.64-1.19-6.34-1.44-7.43-4.72.01-.92,2.44-.92,3.42-.59l12.13,4.04c-.01-1.03-.03-1.76.14-2.13.15-.31.8-.6,1.42-.44l8.62,2.32c2.9.78,6.04.75,8.36-1.02l-10.7-4.73c-.43-.19-.7-.55-.84-.72-.27-.34-.08-.54.12-.65,1.32-.73,5.84,2.57,13.28,2.79l1.01-.86,1.01.17c4.26,1.87,11.15,3.38,13.05.63-4.26-.68-8.59-1.35-12.18-4.21,2.23-1.44,4.27.05,6.18-.21,5.03-.7,14.74,3.43,22.41.06-2.5-.76-4.56-.72-6.72-2.34,1.16-1.58,2.94-.46,4.39-.65,1.11-.15,2.57-.26,3.09.67.27.49.28,1.02.04,2.04,4.18.75,7.69-1.52,9.65-5.32-6.38,1.39-12.08,1.18-17.79-.93-.29-.11-1.02.11-1.19-.02s-.44-.45-.38-1.16l-6.35-.47c-8.3-2.5-13.09,3.59-15.59-1.34-5.4-.53-8.12,1.71-9.82,1.22l-8.08-2.33c-.47-.14-.82-.35-1.01-.54-.22-.21-.32-.81-.01-1.12.92-.92,9.55,2.69,15.21,1.1l-12.84-2.55c-.94-.19-2.26.27-2.95.52l-8.93,3.31ZM458.9,36.53c3.07.41,5.49-.45,8.24-.8,4.99-.64,9.84-1.17,14.41-3.61,1.04-.56.68-3.34-.24-3.69-.98-.38-1.76.28-2.19.6-.66.5-.81,1.52-.16,2.62l-7.77,2,1.09-2.44c-4.54,2.43-9.36,2.59-13.37,5.31ZM454.21,36.66c.36-.1.34-.49.01-.59l-4.93.08c1.16,2.16,2.61.39,4.92.51ZM484.83,38.27c-.26-.88-1.2-1.34-1.96-1-.39.17-.94.51-1.56.91,1.42.31,2.19.22,3.51.09ZM656.88,189.85c.54.29,1.62.14,2.42,0-.25-.85-1.24-.45-1.59-.62-1.01-.52-2.59-.78-3.63-.07,1.24.22,1.96.25,2.8.7ZM482.06,193c-.82-2.21-5.64,3.99-5.88,7.97,1.79-2.82,3.17-5.42,5.88-7.97ZM670.79,208.86l7.5-.88c2.36.38,3.65-1.11,5.36-1.51,4.03-.95,7.76-1.28,11.61-2.86,4.82-1.97,9.56-3.95,14.39-6.06l8.34-3.65h-13.25s-12.09,2.28-12.09,2.28c-1.71.32-3.27,2.55-5.86,1.62-1.73-.62-4.31.75-6.28.92l-26.3,2.37c3.29.74,5.66,1.99,5.05,4.84-.5,2.34-2.77,3.15-4.29,5.22l10.57-1.35c1.9-.24,3.25-.71,5.26-.95ZM476.56,211.61c.27-.54,1.76-1.06,1.39-2.26-1.28-4.15,2.27-6.8,2.09-10.48-3.86,4.66-7.98,13.23-7.22,19.39,2.27-1.74,2.4-3.97,3.75-6.65ZM760.44,214.51c3.96.46,6.77-1.84,9.22-4.42l-3.57,1.41c-2.06.82-3.94,1.49-5.66,3.01ZM748.42,223.13c3.44-1.28,7.36-3.02,10.85-5.77-4.57-1.06-8.79,2.69-14.55,4.19l3.7,1.58ZM746.51,224.49l-5.21-.37c-1.08-.08-2.11.16-3.07.64-3.7,1.82-7.17,2.28-11.15,3.35,7.8,2.02,13.13.46,19.44-3.62ZM467.31,227.11c.73-1.3.29-1.98-.01-2.34-.45,1.07-.3,1.74.01,2.34ZM472.96,235.63c.72-3.49.67-6.05-.49-8.67-1.43,3.23-.84,6.23.49,8.67ZM652.57,230.9c-.87-2.2-2.8-1.91-3.92-.81,1.4.72,2.7.55,3.92.81ZM731.5,230.65c-5.18.06-10.05.6-15.02,2.98,5.3,1.47,10.44-.45,15.02-2.98ZM751.8,233.02c-3.62-2.07-5.42-1.98-8.42.08,2.88.39,5.68.53,8.42-.08ZM475.28,238.07l.9-1.55c.27-.47-.41-1.29-1-1.36-.15,1.07-.24,1.68.09,2.91ZM744.99,236.66c-2.72-.84-4.26-1.94-6.68-1.12,2.28,1.67,4.69,1.52,6.68,1.12ZM709.61,237.68c2.61,1.27,5.59.44,7.58-1.6-4.47-.42-8.29-.48-12.43.83l4.85.77ZM744.61,239.52l-9.12-2.25c-1.11-.27-2.27-.3-3.68.59,4.06.95,8.16,2.37,12.8,1.67ZM477.74,237.76c-1.25,2.96-.2,6.18,2.38,8.29,1-4.27-1.49-5.21-2.38-8.29ZM761.69,240.09l-3.4-2.19c-3.49.06-7.22.09-9.99,2.25,4.46.84,8.55.6,12.48.28-.12,1.52,1.75.9.91-.34ZM688.85,244.15c1.74-1.24,2.77-.1,4.17-.44l14.35-3.49c-.09-.36-.06-.68-.03-.93l-15.39,1.88-11.26,3.29c2.79.48,6.26,1.05,8.16-.31ZM750.87,242.76c-2.03-.23-3.6-.61-5.68.34,2.1,1.27,4.1.76,5.68-.34ZM482.65,258.32c-3.34-6.16-.4-11.64-5.39-11.89,2.44,6.02.26,12.28,5.39,11.89ZM675.73,247.14c-2.82-1.08-4.85-.56-7.34-.35,2.37.66,4.64,1.73,7.34.35ZM712.52,248.16l-5.19-1.19c-1.2.13-2.27.22-3.49,1.09,2.78.73,5.66,1.35,8.68.09ZM712.01,250.93c-6.94-.08-14.67-2.9-15.59.3,5.21.59,10.4,1.3,15.59-.3ZM486.35,257.49c-1.22-1.85-.28-4.8-3-6.43.15,4.89,2.39,8.89,5.33,12.44.14-2.6-1.12-4.19-2.33-6.01ZM753.63,263.07c-1.13-.49-1.83-.74-1.95-1.05-.08-.2.18-.95-.3-1.01l-8.24-.92,2.62,1.97c2.04,1.54,5.48,1.31,7.86,1ZM739.64,264.84l10.64,1.62c6.9.32,13.93-1.55,19.6-5.34-3.07-1.12-5.8-.16-8.82.25-1.89.26-4.37-.07-5.8,1.14-.1.37.82.98,1.09,1.13s-.06,1.02-.68,1.15c-7.07,1.48-13.05-2.75-16.04.05ZM632.46,263.14c.44.01,1.03-.49,1.07-1.18l-3.23-.18c-.84,1.29-2.36.88-3.31.77-.26.13-.33.36-.34.45l5.8.14ZM487.49,267.05c-1.12-1.42-2.17-2.9-3.94-3.3l5.94,7.25.57-.7-2.57-3.25ZM502.03,271.14c-4.03-2.93-5.23-4.52-6.31-2.55,2.67,3.36,6.5,8.37,9.75,7.03-1.16-1.33-1.98-3.4-3.45-4.47ZM495.03,276.86c-1.04-1.43-1.92-2.71-3.36-2.09,2.15,2.75,3.68,5.47,6.74,6.44-.04-2.36-2.28-2.84-3.38-4.35ZM502.72,280.15c-.7-.85-1.84-1.34-3.08-.81,1.97,1.51,3.42,3,5.71,4l-2.63-3.18ZM537.99,284.21c-3.85-4.23-10.25-5.46-15.66-4.36l5.97,3.98c2.84,1.27,6.46.79,9.69.38ZM742.73,279.34l-5.52-.08c-.63.35-.68.91-.39,1.07,2.41.09,3.96.18,5.9-.99ZM518.66,284.24c-1.65-1.46-2.79-3.31-4.49-3.46l-7.23-.68c2.66,2.97,8.08,5.14,11.71,4.14ZM524.52,284.96c-2.01-2.59-3.33-4.08-6.11-4.13l2.83,2.97c.95,1,2.14,1.76,3.28,1.16ZM554.66,289.64l-6.23-4.32c-1.35-.94-3.66-.02-4.82.34,1.65,2.3,3.75,2.6,5.68,3.68,1.7.96,3.56,2.14,5.37.3ZM513.64,290.15c-2.02-2.27-4.18-4.01-7.38-4.12,2.07,2.2,4.31,3.72,7.38,4.12ZM546.77,290.84c-4.63-3.88-6.06-5.95-11.74-3.74.69,1.91,2.62,2.02,4.13,2.87,2.41,1.35,4.71,2.48,7.6.87ZM528.47,292.24l-3.71-2.68c-2.17-1.57-4.63-3.13-7.17-1.49,2.12,2.75,7.26,4.21,10.88,4.17ZM532.09,292.18c-.51-2.29-.93-3.16-1.86-3.87-1.11-.84-2.55-.63-3.72-.26l5.58,4.12ZM667.99,298.84c-5.1-2.5-9.41-6.02-14.46-9.5.68,3.23,3.12,4.91,5.74,6.48,3.68,2.2,7.33,5.25,8.72,3.01ZM536.9,292.62c-.02-1.01-1.06-1.57-2.22-1.88-.33.47-.18,1.49.18,1.55l2.05.34ZM561.8,298.6c-2.48-.88-3.66-2.1-3.56-4.22l2.78-.94c-.94-1.29-1.79-1.62-3.14-1.48-1.01.1-1.82,1.38-2.67,2.03-2.54-.29-5.66-.8-8.07.83,1.01,1.5,3.11.84,4.6,1.32,2.5,2.4,7.38,3.98,10.07,2.45ZM530.72,298.46c-4-2.72-8.34-4.28-13.36-4.97,2.59,2.32,5.63,3.4,9.08,3.72,1.45.14,2.61,1.38,4.28,1.25ZM569.62,297.24l-6.8-2.89c-.67-.29-1.21-.39-1.65.29-.23.35-.1.94.81,1.34,1.55.68,1.54,3.31,7.64,1.26ZM699.46,297.31l-7.38-1.25c-2.8-.47-5.31-1.82-8.18-1.56-.22,1.03.5,1.27,1.17,1.06,4.51,2.45,9.34,3.53,14.39,1.75ZM550.3,298.67l-12.49-2.99c3.72,3.05,12.57,5.61,12.49,2.99ZM539.98,299.74c-2.61-1.37-4.5-3.4-7.94-3.5,2.39,1.86,4.67,3.52,7.94,3.5ZM678.93,303.31c-5.63-1.24-10.61-.36-15.72-2.06l-6.32-4.78c-.74,1.47.38,2.76,1.57,2.93.97.14,7.84,8.53,20.47,3.92ZM586.06,302.1c.65.47,1.25.35,1.54.07.52-.5.09-.89-.23-1.36l-2.56-3.82c-1.63.82-3.13.36-5.18.49l6.43,4.61ZM574.09,305.97c-1.19-1.05-2.9-2.11-4.06-2.54l-4.52-1.64-4.65,1.06c4.24,2.41,8.54,4.38,13.23,3.12ZM578.7,304.42c-1.9-.91-3.07-2.37-5.4-2.37,1.33,1.43,2.88,2.97,5.4,2.37ZM554.12,306.07l-5.05-1.93c-1.75-.67-3.32-1.49-5.49-.72,3.94,1.87,9.74,4.9,10.54,2.65ZM552.17,303.42c3.84,1.3,7.23,3.64,11.79,3.31-3.19-1.95-8.8-4.19-11.79-3.31ZM593.28,308.69c-1.33-3.07-4.24-1.99-6.36-4.33l-2.13,2.23c2.82,1.5,5.49,1.96,8.48,2.1ZM660.9,305.4c.05.48.26.61.46.67.44.12,1.16.2,1.45-.49-.98.13-1.27-.48-1.6-.55-.84-.19-1.42-.57-2.13-.4.29,1.19,1.18,1.09,1.82.78ZM589.72,310.54l-12.14-2.94c3.4,2.71,7.84,3.99,12.14,2.94ZM610.01,308.45c-.34.07-.83.75-1.35.54l-1.53-.61c-1.11-.44-2.42-1.71-3.68-.67,2.67,2.13,4.92,3.51,7.65,4.87-.29-.99-.72-1.83-.42-2.23.46-.6,1.41-.46,2.28-.38-.64-.54-1.98-1.38-2.96-1.52ZM577.32,311.23c-.69-1.86-2.48-2.74-4.01-1.57,1.18,1,2.54,1.44,4.01,1.57ZM573.83,312.63c-3.14-2-6.12-2.53-9.62-2.31,2.96,1.47,6.01,2.76,9.62,2.31ZM620.87,314.6c-2.66-1.71-4.96-2.96-7.5-4.37,1.64,2.89,4.82,3.79,7.5,4.37ZM596.34,310.98c-1.3-.73-1.98-.29-2.34.01,1.07.45,1.74.3,2.34-.01ZM586.61,313.18l-5.24-.05c2.3,1.25,4.76,1.88,7.61,1.42-.56-.67-1.49-1.37-2.38-1.37ZM599.84,313.89c-1.03-.75-2.01-1.32-3.53-.77,1.04.73,1.98,1.31,3.53.77ZM548.06,366.02c3.14.84,6.12,1.58,8.95.87l8.79-2.23c3.73-.95,6.77-4.45,9.32-7.18.66.03,1.83.15,2.06-.5.68-1.89,3.09-2.46,4.69-4.95.89.69,1.49,1.69,2,1.89,1.03.04,1.09-1.22,1.2-1.8.23-1.3-2.27-2.56-2.45-3.45s2.04-1.97,1.49-2.65c-.26-.32-.77-.55-1.48-.85l3.05-2.83c-1.02-.34-1.27-1.09-1.07-1.4.19-.3.48-.81,1.45-.99-.96-1.85.49-3.06,2.16-3.71.21-.08-.06-.84-.28-.82-.23.01-.89.24-1.62-.44l3.48-2.61c-.72-.72-1.5-.81-2.92-1.15,1.26-1.18,2.3-1.09,4.09-1.67l-4.44-1.26c1.27-1.02,2.52-1.26,4.33-1.85-1.48-.67-2.98-.38-4.95-.57-.59.28-.61,1,.05,1.51-1.38,7.49-3.89,14.56-7.73,21.17-4.47,7.7-17.29,7.11-26.41,6.87-5.5-.14-10.33,1.4-15.1,3.71-.64,2.11-2.33,2.56-4.55,3.32l5.01,1.1c3.05-.12,6.48-1.51,9.62-2.31.56-.14,1.22-1.56,1.78-1.56.45,0,1.67,1.1,2.12.96,2.3-.69,4.77-2.25,7.4-1.58,1.09-1.84,2.94-1.84,4.48-.51,1.2-1.95,2.8-1.61,4.17-1.99.83-.23,1.59-1.18,2.21-1.11.94.1,1.77,1.02,1.55,1.93-.48,1.96-2.72.73-3.55,1.12-1.41.67-2.57,1.87-4.31,1.53-1.51-.29-2.48,1.93-2.67,1.95-1.25.15-1.94-1.7-3.15-.77-.27.21-.68.41-.92,1.4-2.68-1.32-4.8.63-7.25,1.51l-4.96,1.78,4.38.11ZM646.67,330.6c-2.37-.08-3.34-.42-5.2-1.04-.17,1.74.84,2.25,2.33,2.48,1.13.18,2.47.39,2.87-1.44ZM643.44,360.24c.35-.68.32-1.37.06-1.61-.2-.18-1.01-.05-1.34.08l-1.47.56c-.55.21-1.31-.31-1.02-1.18.22-.65.84-1.93.48-2.21l-1.43-1.13c.26-1.04,1.41-1.74,2.29-2.57-.96-.7-1.61-1.72-.95-2.66l1.63-2.3c-.28-.37-1.14-1.31-.75-1.87,1.17-1.67,2.7-2.12,2.09-2.7-.42-.4-.78-.5-1.69-.78l2.58-2.46c-.54-.35-1.04-.72-1.12-.99-.05-.17.15-.64.37-.93l2.23-2.97-3.96-1.08-1.12,5.8-3.96,12.67c-2.59,8.27-11.63,7.56-9.01,10.79,2.03-1.6,3.84-2.65,4.71-1.57.38.47.31,1.19-.08,1.72l-3.18,4.28c-.63-.1-1.57.31-1.12,1.38l-8.3,5.85,7.29-1.19c4.24-.69,5.34-7.33,10.51-10.73,1.85-1.22,5.73-1.15,5.63-.96l.62-1.22ZM592.41,355.28c-.05-2.84-4.91-3.13-5.07-2.48-.15.61-.35,1.1-.05,1.93,1.82-.41,2.88-.2,5.12.55ZM648.92,363.3c-.97-1.63-2.19-1.86-3.28-2.86l-1.84,2.17,5.12.69ZM596.54,368.61l5.66.32c1.41-1.3,3.28-2.05,5.19-2.6,2.59-.93,5.13-1.41,7.64-2.95,2.28.17,5.05-.37,6.43-2.3-2.3-.06-3.34,1.24-5.07,1.73-1.8-1.02-3.81-1.21-4.97.41-2.98-.35-5.18.63-7.86.93-1.82,2.98-4.42,2.68-7.02,4.46ZM619.33,367.82l4.33-2.56c1.24-.73,1.98-1.12,2.91-2.46l-6.38,1.45c-4.73,1.93-9.55,3.28-13.86,6.35l6.73,1.22c2.22-.22,4.2-2.78,6.27-4.01Z"/>
      <path class="cls-1" d="M521.79,20.23c-.37,1.02-5.07,1.43-8.34.33-.55,2.49-2.32,4.13-3.8,4.82-3.46,1.62-10.45-.36-9.89-3.75.43-2.55,2.55-5.48,5.1-6.61,3.3-1.46,7.07-.85,10.11.56l6.29,2.91c.6.28.69,1.27.52,1.74Z"/>
      <path class="cls-1" d="M686.08,269.26l-10.19-.47c-3.07-.14-6.26-1.95-6.27-2.49-.05-2.57,9.78,2.23,15.71.82-5.27-1.9-10.22-2.73-14.91-5.61-.27-.86.49-1.52,1.34-1.36,2.73.23,4.81,1.26,7.06,2.31,5.66,2.64,12.62.95,14.36,2.01,1.9,1.17-1.89,1.31-4.83,3.17-.59.85-.82,1.7-2.27,1.63Z"/>
      <path class="cls-1" d="M606.18,205.07c-.86.24-7.87-.64-10.22-2.04.06-3.76,3.87.4,9.62-2.16,1.38-.62,3.19-.93,4.7.18l5.33-1.61c1.78-.54,3.63-.89,5.4.36-.76.94-1.85,1.71-3.09,2.05l-11.75,3.22Z"/>
      <path class="cls-1" d="M619.68,300.48c5.08,5.68,11.76,8.72,8.34,9.06-2.51.25-3.37-2.71-5.05-2.16.71.7,2.16,2.48,1.57,3.34-2.21,3.22-16.82-9.68-13.42-10.67.31-.09.63-.09,1.4.3,2.09,2.7,3.82,5.96,7.21,6.99l.93.28c.25.08,1.01-.65.77-1.03l-3.15-5.23c-.27-.44-.08-.93.13-1.09.24-.19.97-.09,1.26.23Z"/>
      <path class="cls-1" d="M654.23,272.02c1.36,3-18.43,4.71-24.15,1.15-.66-.41-.02-1.96.72-1.78,7.27,1.83,14.74,2.27,22.15.09.62-.18,1.14.25,1.27.54Z"/>
      <path class="cls-1" d="M711.21,256.46l-6.91,1.37c-7.37,1.46-17.51-.98-16.89-2.89.13-.39,1.13-1.01,1.68-.8,12.48,4.73,21.4-.4,22.81.76.29.24.19,1.38-.68,1.56Z"/>
      <path class="cls-1" d="M703.65,261.8c-6.91,1.28-16.5,2.11-20.8-2.2-.15-.47.9-1.22,1.35-1.12l2.01.45c4.71,1.06,8.83,2.03,13.74,1.5,1.12-.12,2.74-.8,3.71,1.37Z"/>
      <path class="cls-1" d="M572.7,276.45c-1.23,3.76-9.94-1.83-14.1-5.18-.97-.79.41-3.01,1.08-2.47,3.98,3.19,7.73,5.98,13.02,7.66Z"/>
      <path class="cls-1" d="M727.58,269.73c2.46.9,10.41,2.09,6.71,3.51-2.31.89-11.86-2.67-16.54-5.62-.26-.16.44-1.03.81-.96l1.43.28,7.59,2.79Z"/>
      <path class="cls-1" d="M673,283.92c.41.15,1.29.24,1.38.72.69,3.64-16.2-2.93-15.84-5.21.12-.78,1.04-1.43,1.93-.83l2.73,1.83,9.8,3.48Z"/>
      <path class="cls-1" d="M577.07,274.45c-1.58-3.24,1.91-2.24,5.27,1.69-8.9,1.58-17.69-5.33-13.65-5.63.53-.04,1.15.29,1.91.67l6.47,3.27Z"/>
      <path class="cls-1" d="M493.79,190.56c-1.87,4.01-3.43,7.52-5.16,11.78-3.38-4.39,1.87-13.37,5.16-11.78Z"/>
      <path class="cls-1" d="M521.75,170.15c-1.31-2.65.4-4.74,1.91-6.56l6.12-7.42c.37.62.5,1.76.32,2.34l-8.35,11.65Z"/>
      <path class="cls-1" d="M677.26,281.73c.37.57.15.77.03.95-1.4,2.02-12.92-3.47-12.66-4.96.76-4.37,6.1,3.05,12.63,4.02Z"/>
      <path class="cls-1" d="M627.43,80.46c.57,7.06-1.33,8.85-1.72,7.02-.48-2.31-.72-4.76-.44-6.93,1-.86,1.59-1.82,1.94-3.49,2.94,1.97,4.03,5.31,2.33,8.67l-2.11-5.27Z"/>
      <path class="cls-1" d="M626.1,195.32l-6.29-.78c-1.97-.24-4.15.12-5.91-1.54,3.77-2.26,12.05-1.75,12.21,2.32Z"/>
      <path class="cls-1" d="M538.3,146.74c-5.18,1.83-8.41,6.46-13.43,9.25-.58-1.81.92-2.07,1.56-2.76,3.51-3.76,9.72-9.49,11.87-6.5Z"/>
      <path class="cls-1" d="M520.81,255.33c-2.42,1.04-5-4.16-4.32-8.03,1.46-1.08,3.33,1.05,4.07,2.56.72,1.47.46,3.32.24,5.47Z"/>
      <path class="cls-1" d="M587.29,247.11c.07.4-.67,1.21-1,1.22-2.88.07-7.79-8.36-5.06-9.2,1.68-.52,2.66,4.73,6.07,7.98Z"/>
      <path class="cls-1" d="M648.3,318.63c.39-4.09-3.04-7.51-.58-10.56,2.18,1.81,3.69,6.69,3.1,8.62-.33,1.07-1.03,1.51-2.52,1.94Z"/>
      <path class="cls-1" d="M646.49,304.81l-2.12-10.17c-.26-1.24-1.12-2.37.28-3.67,1.87,2.34,2.66,5.08,2.69,8.22.45,1.71,1.45,3.66-.85,5.61Z"/>
      <path class="cls-1" d="M619.24,103.35l-.6,1.06c-.25.44-.89.67-1.25.15-.18-.27-.44-.57-.17-1.24l1.62-4.18c.37-.24,1.39.33,1.91,1.08.59-1.49-.12-3.42,1.57-5.18,1.66,2.43.68,6.31-1.14,8.14-.17.17-1.01-.95-1.13-.81l-.81.98Z"/>
      <path class="cls-1" d="M563.17,276.98c.38.32-.96,1.2-1.83.76-6.72-3.41-10.01-8.27-8.1-8.09,2.16.21,5.5,4.43,9.93,7.33Z"/>
      <path class="cls-1" d="M496.55,196.48c-1.79,2.85-.77,7.74-2.94,7.35-3.84-.7,2.74-12.94,3.73-8.92.15.6-.5,1.11-.79,1.57Z"/>
      <path class="cls-1" d="M633.24,306.62c.3.67-.65,1.62-1.37,1.21-4.97-2.83-9.36-8.68-5.58-8.08,2.07,2.34,4.15,4.8,6.94,6.86Z"/>
      <path class="cls-1" d="M491.77,212.22l-2.39,10.42c-2.52-4.16.11-12.97,2.39-10.42Z"/>
      <path class="cls-1" d="M575.95,236.82c.87.2,3.87,5.75,5.03,9.5-4.97-2.07-7.49-10.06-5.03-9.5Z"/>
      <path class="cls-1" d="M510.33,261.31c-3.65-2.27-4.44-6.18-4.75-9.99,2.13-.29,4.33,6.04,4.75,9.99Z"/>
      <path class="cls-1" d="M516.11,256.43c.33.68.21,1.44-.34,1.87-1.2.95-4.29-4.92-3.75-9.87,2.83,2.09,2.78,5.35,4.09,8Z"/>
      <path class="cls-1" d="M500.74,173.52l-4.21,8.77c-2.53-7.54,5.6-11.65,4.21-8.77Z"/>
      <path class="cls-1" d="M593.01,247.57c.31.76.35,1.07.2,1.32-1,1.71-3.61-.92-5.88-4.14l-1.07-1.53c-.31-.45.59-1.67.9-1.4,2.14,1.89,3.53,4.25,5.85,5.74Z"/>
      <path class="cls-1" d="M691.55,218.48c-3.47,1.52-7.81.78-10.91-.84.29-1.75,2.15-1.39,3.24-.89,2.54,1.17,5.13.05,7.68,1.73Z"/>
      <path class="cls-1" d="M515.37,189.69c2.81-.6,2.44,6.75,2.05,7.4-.23.37-1.04.56-1.44.3-.08-.05-2.64-6.24-.61-7.7Z"/>
      <path class="cls-1" d="M626.98,102.44c-2.35-1.16-1.57-7.63.85-8.15,1.28,2.87.29,5.7-.85,8.15Z"/>
      <path class="cls-1" d="M498.22,232.17c-.56,2.29.75,4.68-1.03,7.02-1.87-3.23-1.18-7.08.13-10.44,1.64.76,1.28,1.89.9,3.42Z"/>
      <path class="cls-1" d="M523.69,250.19c-.26.94-1.52.75-1.94.41-.84-.69-2.12-5.33.34-6.87,1.36,1.77,2.26,4.07,1.6,6.46Z"/>
      <path class="cls-1" d="M511.21,195.83c-2.79-2.08-2.77-5.84-.82-8.39,1.57,2.49,1.83,5.43.82,8.39Z"/>
      <path class="cls-1" d="M700.16,281.84c-3.56-1.16-7.5-2.84-7.31-4.11.09-.6,1.02-1.14,1.8-.69l3.21,1.87c.99.58,2.8.67,2.3,2.93Z"/>
      <path class="cls-1" d="M642.97,298.5c-2.55-.77-2.12-3.32-3.31-4.77-.57-.69-.45-1.35.09-1.71,1.27-.84,4.51,2.94,3.23,6.47Z"/>
      <path class="cls-1" d="M522.69,193.3c.19.38,1.65.12,1.69.97.02.56-.03,1.52-.87,1.82-1.27.46-2.79-.49-3.17-1.39-.61-1.45-.52-3.5.94-4.21l1.42,2.81Z"/>
      <path class="cls-1" d="M540.04,234.39l1.75,1.3c.59.44.45,1.62-.29,1.85-1.08.33-4.21-1.17-4.77-2.73-.32-.9.07-1.64.96-1.71s1.5.67,2.34,1.29Z"/>
      <path class="cls-1" d="M502.95,38.17c.04.6-1.5.72-2.16.33l-4.04-2.34c-.46-.27-.41-.71-.46-.93-.43-1.82,3.85-.28,6.66,2.94Z"/>
      <path class="cls-1" d="M631.11,65.56c-.91,1.5-4.2-2.97-4.22-3.2-.05-.53.3-1.5,1.58-1.24,1.5.3,3.89,2.38,2.64,4.44Z"/>
      <path class="cls-1" d="M575.69,209.88c-1.46.02-1.71-3.37.05-4.02,1.25-.46,2.18.58,2.34,1.46.14.8-.36,2.53-2.39,2.55Z"/>
      <path class="cls-1" d="M602.97,259.28c-2.57,1-5.79-.29-7.12-3.35,2.44.54,4.83.92,7.12,3.35Z"/>
      <path class="cls-1" d="M543.64,233.93c-1.51.74-3.31-2.37-3.19-3.76.99-.85,2.08,0,2.9.46.72.41,1.57,2.66.29,3.3Z"/>
      <path class="cls-1" d="M683.2,258.14c-3.16,1.63-8.06-.2-7.9-1.01.22-1.15,4.56-.63,7.9,1.01Z"/>
      <path class="cls-1" d="M492.54,225.63c-1.66.04-2-4.19-.25-4.37,1.96-.2,2.26,4.32.25,4.37Z"/>
      <path class="cls-1" d="M599.8,248.29c-2.53.55-4.58-1.62-5.33-4.21,2.28.58,4.25,1.84,5.33,4.21Z"/>
      <path class="cls-1" d="M531.45,191.75c.06,1.3-1.27,2.02-2.33,2.25-1.33.28-2.73-.02-2.94-2.03,1.63-.45,2.6-.32,5.27-.22Z"/>
      <path class="cls-1" d="M524.82,140.93c1.59,1.57-1.54,2.82-5.47,4.62.74-2.74,3.18-3.89,5.47-4.62Z"/>
      <path class="cls-1" d="M610.2,38.48c.62-1.54,3.25-.67,4.35.82.52.7-.26,2.23-.9,1.94-1.42-.64-2.34-1.82-3.45-2.76Z"/>
      <path class="cls-1" d="M638.64,298.88c-1.68-.72-3.26-2.82-3.12-4.87,2.14.59,3.94,1.73,3.12,4.87Z"/>
      <path class="cls-1" d="M614.47,214.61c-2.25,1.46-4.38-.21-6.14-1.69,2.16-.33,4.07-.29,6.14,1.69Z"/>
      <path class="cls-1" d="M511.51,150.93c.85.75-.76,2.66-3.42,3.11-.72-1.82.82-3.19,2.45-3.38.54-.06.79.11.97.27Z"/>
      <path class="cls-1" d="M608.2,285.44c-2.54.72-4.28-1.38-4.68-3.49,2.14.44,3.65,1.25,4.68,3.49Z"/>
      <path class="cls-1" d="M498.13,220.1c-1.47-1.95-1.27-4.08.43-5.5.9,1.87,1,3.54-.43,5.5Z"/>
      <path class="cls-1" d="M596.63,35.96c-1.26.78-1.89-.77-2-1.36s-.34-2.21.76-2.33c1.03-.02,2.42,2.97,1.24,3.7Z"/>
      <path class="cls-1" d="M545.8,230.34c-1.23.28-2.52-2.85-1.44-3.44s1.67.55,1.81,1.11c.14.59.95,2.03-.37,2.33Z"/>
      <path class="cls-1" d="M506.91,162.53c-1.24-1.34,1.14-3.96,2.24-3.17,1.08.77-.57,3.72-2.24,3.17Z"/>
      <path class="cls-1" d="M599.31,27.54c.46-.49,3.38,1.15,3.54,1.97.07.34-.17.91-.48,1-.81.22-4.17-1.77-3.05-2.97Z"/>
      <path class="cls-1" d="M506.19,187.16c-.51.98-.65,1.96-1.81,2.12-.66-1.26-.59-3.57,1.08-4.05.75-.22,1.12,1.19.74,1.93Z"/>
      <path class="cls-1" d="M503.55,217.09c-1.25.16-1.54-1.51-.99-2.23.36-.46.49-1.67,1.73-1.55.51,1.13.15,3.61-.74,3.77Z"/>
      <path class="cls-1" d="M625.44,54.44c-.8.71-2.71-1.87-1.85-2.85.73-.84,3.37,1.51,1.85,2.85Z"/>
      <path class="cls-1" d="M629.04,285.73c-2.3.49-3.69-1.28-3.67-3.14,1.73.53,2.86,1.45,3.67,3.14Z"/>
      <path class="cls-1" d="M580.49,213.36c-1.04,0-1.47-2.24-.75-2.74,1.09-.75,1.8.14,2.05.92.17.52.18,1.82-1.31,1.81Z"/>
      <path class="cls-1" d="M588.04,232.5c.72-.55,1.39-.16,1.68.51s.17,1.08-.15,1.39c-.57.55-1.45.61-2.09.19-.56-.37-.16-1.53.56-2.08Z"/>
      <path class="cls-1" d="M617.33,71.55c-.8-.31-1.75-3.1-.25-3.48.94-.24,1.87,2.73.25,3.48Z"/>
      <path class="cls-1" d="M563.07,256.45c-.76.25-1.72-1.82-1.17-2.26.85-.68,1.34.08,1.55.41.25.39.6,1.52-.38,1.84Z"/>
      <path class="cls-1" d="M588.82,221.08c-.29,1.07-1.65.43-1.84-.18-.13-.43-.39-1.14.44-1.69.43.13,1.63.96,1.39,1.87Z"/>
      <path class="cls-1" d="M543.69,137.06c-.64.05-1.41-.34-1.72-.59.6-.96,1.26-1.32,1.92-1.16.5.12.86.35.94.62.13.43-.2,1.06-1.14,1.13Z"/>
      <path class="cls-1" d="M513.32,179.89c-.46.77-1.16.38-1.35-.18-.16-.47-.28-1.13.41-1.85.5-.52,1.19-.03,1.23.34.04.31.18.9-.29,1.69Z"/>
    </g>
    <path class="cls-2" d="M13.32,369.2v-12.25c9.59-.35,17.13-1.41,22.64-3.2,5.5-1.77,9.32-5.5,11.45-11.19,2.13-5.67,3.2-14.55,3.2-26.63V68.25c0-12.43-1.33-21.39-4-26.9-2.66-5.5-7.55-9.14-14.65-10.92-7.11-1.77-17.76-2.84-31.96-3.19v-12.25h50.6c17.39,0,31.6-.27,42.61-.8,11-.53,21.22-.97,30.63-1.33,9.4-.35,20.33-.53,32.76-.53,37.64,0,65.16,6.48,82.56,19.44,17.39,12.97,26.1,29.92,26.1,50.87s-7.11,38.88-21.31,51.67c-14.21,12.78-31.61,22.9-52.2,30.36v1.07c21.66,1.07,40.92,5.25,57.79,12.52,16.86,7.28,30.27,17.49,40.22,30.63,9.94,13.14,14.91,29.12,14.91,47.94s-4.89,36.31-14.65,53.53c-9.77,17.23-25.03,31.34-45.81,42.35-20.77,11.01-47.86,16.51-81.23,16.51H13.32ZM95.88,172.12c4.61-3.2,8.96-5.24,13.05-6.13,4.08-.88,8.96-1.51,14.65-1.86,10.65-1.07,21.39-2.74,32.23-5.06,10.83-2.3,20.77-6.13,29.83-11.45,9.06-5.33,16.42-12.69,22.11-22.11,5.68-9.41,8.52-21.39,8.52-35.95,0-16.69-3.91-29.12-11.72-37.29-7.81-8.17-17.58-13.66-29.3-16.51-11.72-2.84-23.8-4.26-36.22-4.26-15.27,0-26.28,1.96-33.03,5.86-6.75,3.91-10.12,14.21-10.12,30.9v103.87ZM158.73,350.02c25.21,0,44.83-4.61,58.86-13.85,14.02-9.23,23.88-20.68,29.56-34.36,5.68-13.66,8.52-27.25,8.52-40.75,0-19.53-4.89-35.07-14.65-46.61-9.77-11.53-22.91-19.88-39.42-25.03-16.51-5.15-35.07-7.72-55.66-7.72-17.4,0-30.1,2.22-38.09,6.66-7.99,4.44-11.99,12.7-11.99,24.77v102.8c0,10.3,1.77,17.85,5.33,22.64,3.55,4.79,9.85,7.91,18.91,9.32,9.06,1.43,21.92,2.13,38.62,2.13Z"/>
    <path class="cls-2" d="M417.82,315.4c0,12.43,1.24,21.49,3.73,27.16,2.48,5.69,7.01,9.41,13.58,11.19,6.57,1.78,15.89,2.85,27.96,3.2v12.25h-119.85v-12.25c7.81-.35,14.02-1.41,18.64-3.2,4.61-1.77,7.99-5.5,10.12-11.19,2.13-5.67,3.2-14.73,3.2-27.16v-120.38c0-9.94-1.52-16.42-4.53-19.44-3.02-3.01-7.02-4.53-11.98-4.53-4.62,0-9.51.8-14.65,2.4-5.15,1.6-9.85,3.29-14.11,5.06l-5.33-12.25,92.15-42.08,3.2,3.2c-.36,2.85-.8,10.48-1.33,22.91-.53,12.43-.8,27.16-.8,44.21v120.91Z"/>
    <path class="cls-2" d="M788.66,369.04v-12.25c9.59-.35,17.04-1.41,22.37-3.2,5.33-1.77,9.14-5.5,11.45-11.19,2.3-5.67,3.46-14.55,3.46-26.63V68.09c0-12.43-1.33-21.39-4-26.9-2.66-5.5-7.55-9.14-14.65-10.92-7.11-1.77-17.76-2.84-31.96-3.19v-12.25h50.6c24.14,0,45.54-.44,64.19-1.33,18.64-.88,34.53-1.33,47.67-1.33,38.35,0,71.82,6.31,100.41,18.91,28.58,12.61,50.87,31.34,66.85,56.2,15.98,24.86,23.97,56.11,23.97,93.75,0,29.12-5.33,55.32-15.98,78.57-10.65,23.26-25.13,43.06-43.41,59.39-18.29,16.34-38.88,28.76-61.79,37.29-22.9,8.52-46.79,12.78-71.64,12.78h-147.55ZM920.22,349.86c53.97,0,93.66-14.46,119.05-43.41,25.38-28.94,38.09-68.09,38.09-117.45,0-37.99-6.31-68.53-18.91-91.62-12.61-23.08-30.45-39.86-53.53-50.34-23.09-10.47-50.43-15.71-82.03-15.71-19.53,0-33.03,2.05-40.48,6.13-7.46,4.09-11.19,14.3-11.19,30.63v247.69c0,15.27,3.64,24.77,10.92,28.5,7.27,3.73,19.97,5.59,38.09,5.59Z"/>
    <path class="cls-2" d="M1340.24,6.83c24.14,0,46.88,4.26,68.18,12.78,21.31,8.52,40.3,20.86,56.99,37.02,16.69,16.16,29.74,35.61,39.15,58.33,9.4,22.73,14.11,48.12,14.11,76.17s-4.71,53.45-14.11,76.17c-9.41,22.73-22.37,42.26-38.88,58.59-16.51,16.34-35.6,28.95-57.26,37.82-21.66,8.87-44.57,13.32-68.71,13.32s-46.43-4.26-67.91-12.78c-21.49-8.52-40.48-20.86-56.99-37.02-16.51-16.16-29.48-35.6-38.88-58.33-9.41-22.72-14.12-48.11-14.12-76.17s4.7-53.44,14.12-76.17c9.4-22.72,22.37-42.25,38.88-58.59,16.51-16.33,35.51-28.94,56.99-37.82,21.48-8.87,44.29-13.32,68.45-13.32ZM1347.7,355.72c21.31,0,40.92-5.86,58.86-17.58,17.93-11.72,32.4-29.03,43.41-51.93,11-22.9,16.51-51.22,16.51-84.96,0-36.93-6.39-68.27-19.18-94.02-12.78-25.74-29.3-45.36-49.54-58.86-20.24-13.49-41.91-20.24-64.98-20.24-21.31,0-41.01,5.86-59.13,17.58-18.11,11.72-32.67,29.03-43.68,51.93-11.01,22.91-16.51,51.23-16.51,84.96,0,36.94,6.39,68.27,19.18,94.01,12.78,25.75,29.47,45.37,50.07,58.86,20.59,13.5,42.25,20.24,64.98,20.24Z"/>
  </g>
  <circle class="cls-1" cx="357.76" cy="63.76" r="33.12"/>
</svg>