<?xml version="1.0" encoding="UTF-8"?>
<svg id="Warstwa_1" data-name="Warstwa 1" xmlns="http://www.w3.org/2000/svg" viewBox="0 0 1633.75 477.27">
  <defs>
    <style>
      .cls-1 {
        fill: #7c2d85;
      }

      .cls-2 {
        fill: gray;
      }
    </style>
  </defs>
  <g>
    <path class="cls-1" d="M189.93,438.52c-2.52-4.95-6.22-1.08-12.93-4.96-3.55-2.05-12.9.51-11.89-3.11,1.35-4.82,6.42-7.2,10.29-9.3,2.16-1.18,3.86-2.17,6.28-2.73l10.24-2.38,15.07-1.61c5.26-.56,8.53-10.45,10.12-16.65,1.24-4.81,2.62-9.58,1.46-14.58-2.06-8.89-7.12-4.8-19.87-8.37-2.43-.68-5.13-.7-7.61-.42l-9.07,1.03c-2.54.29.71,4.42-1.78,8.43l-5.41,8.72c-2.16,3.48-4.86,7.25-4.83,11.77.02,2.43,3.64,3.59,5.05,4.8,2.66,2.27,3.3,5.58,1.86,8.29-.6,1.13-1.64,1.43-2.35,1.81-1.28.68-2.13-.7-3.31-.99-4.98-1.25-10.42.37-14.31,3.53-3.73,3.02-7.54,4.77-11.92,6.61-6.02,2.53-12.24,4.76-18.91,3.76l-5.91-2.25-10.61-.91c-4.55-1.38-8.67-3.76-13.55-3.4-1.66.12-3.01-.46-3.55-2.06-.92-2.75,5.84-5.78,9.31-7.83l9.59-5.68c4.84-1.93,10.12-1.23,15.24-1.53l14.22-.82c5.99-.34,11.23-6.84,12.84-12.3l3.41-11.56c1.3-4.39-5.38-6.35-9.67-10.51l-28.26-7.54c-9.77-2.61-19.46-4.92-28.31-9.91-10.33-5.82-20.91-10.89-30.11-18.26-12.99-10.41-23.78-24.47-29.39-39.92-5.13-14.12-5.97-29.09-3.34-43.85l3.79-13.23c1.5-5.22,4.22-9.3,7.45-13.63,2.9-3.9,5.01-8.5,9.84-11.03,1.36-6.48,4.51-12.3,7.98-18.28,2.63-4.53,4.75-9.11,8.04-13.05,11.23-13.46,26.37-21.84,43.17-25.73l29.41-6.82c12.91-2.99,24.46-8.53,34.71-16.99,4.12-3.4,8.27-6.56,10.92-11.45,9.46-17.45,3.96-36.64-9.74-49.99-3.35-3.26-7.43-5.28-11.45-7.78-6.8-4.24-14.77-6.99-22.79-8.07l-15.25-.92c-11.39-.69-24.24,8.4-35.65,10.94-4.4.98-8.94.2-13.34.75-6.17.77-11.83-1.19-17.99-1.28l-14.65-.21-25.43-1.67c-4.56-.3-8.74-1.37-13.41-1.11-1.44.08-2.86-.88-3.4-1.98-.49-1-.33-2.56.78-3.67l4.74-4.77c1.96-1.98,17.45-4.97,24.43-6.26,6.08-1.12,11.88-3.34,16.17-8.1,1.08-4.37,2.72-8.6,5.69-12,3.42-3.23,7.55-4.57,11.65-6.23,11.72-4.73,24.01-5.56,36.15-1.36,4.56,1.58,8.87,3.27,13.64,4.09l24.62,4.25c6.12,1.06,11.95.5,18.01,2.11,7.19,1.91,14.79,2.53,21.26,6.33l12.41,7.3,10.37,9.42c4.85,4.41,9.57,8.57,13.27,14.16,2.55,3.85,5.83,7.27,7.25,11.73,2.53,7.97,4.11,16.18,4.79,24.57.61,7.6-.67,14.57-2.51,21.73-1.12,4.36-8.48,15.51-12.25,19.82-7.49,8.57-16.44,15.86-26.62,20.96-10.26,5.14-20.77,7.44-31.39,10.8l-22.83,7.23c-5.39,1.71-10.07,4.24-14.75,7.56-5.69,4.04-10.24,14.97-8.86,17.46.71,1.27,1.88,2.43,3.87,2.2l5.01-.57c6.27-2.19,12.28-3.61,18.7-4.84l7.47-1.44c9.66-.37,18.99.38,28.48,1.33,7.58.76,14.65,2.39,21.91,4.71,4.39,1.4,8.87.87,13.32.22,11.79-1.73,33.4-.04,44.89,2.92,7.45,1.92,14.95,2.36,22.51,3.66,5.92.99,11.59,1.96,17.02,4.69,8.09.85,16.05,1.72,23.96,4.17,1.44.72,2.68,3.25,5.17,2.31,3.13-1.18,5.7,1.34,8.5,1.61l13.07,1.25c2.5.24,4.4,1.35,7.17,1.08,1.78-.17,2.8,1.88,2.55,3.45-.22,1.36-1.55,2.25-3.4,3.46l19.89-.24,13.39.97c1.3.09,3.08-.65,4.21.3.71.6,1.83,1.77,1.89,3.16-.82,2.97-3.16,5.64-5.69,7.83-8.77,7.64-18.33,13.88-28.47,19.02,1.93,2.19,4.11,3.33,6.39,4.85,19.09,12.71,29.41,11.12,31.27,12.03s3.19,3.56,3.11,5.39c-.09,2.33-1.05,4.82-2.99,6.31l-8.97,6.89c-2.84,3.19-5.76,5.58-9.06,8.26-1.66,1.34-1.91,2.96-4.81,2.98-1.47,0-3.72,1.53-5.29,2.21-.32.14.44,1.26.93,1.02.31-.15.97-.4,1.3-.33,1.04.22,1.34,1.32,1.38,2.02.25,4.21-19.7,14.21-28.5,14.8-.88-.69-1,1.06-.06.58,1.14.21.98,1.16.24,1.69-8.86,6.57-18.84,10.04-29.36,12.32l-12.85,3.71c-4.06,1.17-7.45,2.95-11.84,2.7-1.02-.06-3.25.17-4.1,1.03.34,4.05-10.4,4.11-17.92,5.62-4.16.84-7.87,2.17-12.24,1.86-2.22-.16-3.13,2.61-3.4,4.16l-1.06,5.9c-3.39,4.34-4.91,8.84-6.33,14.17-1.99,7.47-5.11,14.53-5.61,22.34-.28,4.27,11.7,3.49,9.31,13.36-.3,1.25-1.36,1.88-2.13,2.08-1.53.41-5.28-2.57-13.06-.43-3.65,1.01-6.35,4.5-9.12,6.98-5.2,4.63-11.88,3.07-19.56,6.58-1.67.76-3.22.9-4.72.14-1.26-.64-1.96-1.8-2.78-3.41ZM307.93,288.64c-1.89.7-3.67.66-5.43,2.07,8.04,2.58,10.96-1.26,10.7-1.25.37-.03,1.13.36,1.56.51,6.15,2.16,9.83.51,11.21,1.97,1.72,1.82-6.38,1.6-12.64.14-.71-.43-1.53.3-.93,1.47l-7.08,1.93c-.06.77,1.15,1.42,1,1.91-.13.4-.72,1.45-1.36,1.53l-11.17,1.45c-4.19.54-7.56-.5-10.83-3.04-2.22-1.72-6.72.11-9.46.55l-11.54,1.84c-.09.62.28,1.35.4,1.73-2.87,2.59-6.58,3.71-10,5.35-5.86,2.82-11.56,4.86-17.72,6.54-2.91.79-5.73,1.61-8.65,3.25,4.44.97,8.58-.35,12.89-1.74,2.05-.66,3.97-2.34,6.47-1.1-7.64,4.67-16.63,7.7-23.77,2.95-16.28,2.87-32.7,2.86-48.95-.65-5.58-1.21-10.18-4.47-15.43-6.69-4.99-2.11-8.92-5.84-13.3-9.14-5.38-4.06-8.17-10.13-10.47-16.29-3.14-8.38-2.87-17.02-.52-25.76l2.89-10.75c.64-2.39-.26-4.84-2.08-6.07-3.84-2.58-7.94.49-8.99.02-.58-.26-1.46-1.32-1.42-2.25.15-2.98,2.31-4.77,5.18-5.39,5.58-1.21,12.34,2.03,14,7.94,2.9,10.31-5.49,20.71-2.93,33.91.93,4.81,2.86,10.66,6.25,14.51,9.18,10.4,21.74,16.29,34.9,19.46,1.62.39,2.89-.22,4.28-.13l15.26.95-7.08-2.69c-2.1-.8-4.76-1.07-5.47-4.13,8.05,3.04,15.52,4.55,23.72,4.85-4.37-4.96,7.41,1.25,16.97-2.37-1.9-.85-3.68.05-4.55-2.36l7.58.34c.99.04,2.95,1.86,4.25.73,1.59-1.38,3.14-.92,4.96-1.66l6.36-2.59c1.7-.69,3.05-2.77,3.52-4.72-4.03-.05-7.45.48-11.19,1.88l8.64.27c-1.61,2.47-4.7,1.13-6.43,1.77-4.59,1.71-8.65,2.01-13.4.38-.62-.21-1.21-.32-1.57-.7-2.7-2.85,4.27-.16,9.99-.45-5.01-2.17-8.02-2.29-3.92-3.96-.8-.76-2.3-1.44-3.32-1.32s-2.59,1.37-2.89,2.27c-.83,2.53-2.91,1.99-4.62,2.73l-6.6,2.85c-3.68,1.59-7.33,2.26-11.45,1.52l-12.38-2.24c-1.04-.19-1.4-1.43-1.39-2.01.01-.67,1.69-1.51,2.27-1.08,3.82,2.81,7.22,1.94,11.06.17l10.9-1.79c-1.97-4.18,5.21-.31,8.89-4.59-4.82-.64-11.09-1.28-11.49-2.95-.07-.3.6-1.13,1.13-1.05,8.89,1.4,15.76-1.94,16.33,4.26,3.21.31,5.89,2.15,9.44,1.43-5.98-1.6-9.21-4.41-6.93-5,1.21-.31,11.85,6.14,19.31,3.25-5.59-1.67-12.44-3.43-10.56-5.32,1.46-1.47,14.47,7.18,19,1.93-5.29-1.17-11.16-2.7-9.97-4.36.39-.54.9-.66,1.6-.45l11.53,3.35c3.09.9,6.49,2.05,9.31-.98l-6.85-1.09c-.79-.13-1.52-.21-2.07-.84-.3-.35-.31-1.66.25-1.61l15.26,1.18c3.71.29,6.8-.31,10.19-1.58,1.48-.55,3.33-.18,4.5-2.07-1.04-.7-2.28-.87-3.88-.36-1.35.43-2.75-1.78-1.98-2.61l12.15.94c3.09.24,5.2-.76,7.79-2.01,3.19-1.55,6.79-1.42,9.87-3.95-5.23-.89-12.71-1.44-12.93-3.46-.33-2.99,11.71,3.71,21.15-.13-2.01-2.82-7.79.44-9.03-4.42l8.75,1.28c4.22.62,8.31.81,11.95-2.21-3.08-.44-5.2-.03-7.38-1.76,1.34-1.34,2.83-1.19,4.32-1.05,7.26.72,13.93-.72,19.91-4.53-1.82-.19-3.4.25-4.71-.7-.56-.41-.55-1.3-.3-1.62.65-.84,4.05.67,9.35-1.19,3.02-1.06,6.12-1.15,8.66-3.39-9.77.18-19.25,0-28.3,2.55-4.26,1.2-8.78,1.47-12.88,2.91-13.18,4.64-25.64,10.19-39.49,13.16-10.51,2.58-20.43,4.74-30.96,5.37-7.6,6.21-16.68,9.61-26.42,10.06l-15.34-.03c-3.72,0-6.98-1.17-9.79-2.89-9.63,4.49-29.02,2.68-25.64-.29.62-.55,11.74-2.43,16.96-2.27.74.02,1.61-.76,1.67-1.23.05-.36-.43-1.06-.83-1.8l7.42-1.04c2.35-.33,4.37-2.06,6.08-3.57-1.91-.6-4.37-.25-5.16-1.8.22-1.98,8.4-1.68,9.76-.18,1.86,2.04.18,5.36-1.76,6.75l-5.35,3.82c5.9,1.5,11.29,2.01,17.23,1l-6.05-2.92c-.61-.3-.74-.91-.47-1.26.66-.82,6.46.8,8.66,2.51.74,1.31,2.45,1.11,3.23-.42-.63.14-1.34.53-2.13-.19.16-.47,1.31-.67,2.38-.78-4.45-3.21-12.09-2.4-9.66-6.02,13.97,4.75,7.86.81,8-.51.05-.44.78-.7,1.06-.52.23.15,1.02.17.89,1.3,5.48,1.71,11.49,1.87,17.35.34.53-.14.59-.83.1-1.08-3.1.06-7.3.11-9.79-2.12.29-1.67,2.99-2.1,4.54-1.36,8.8,4.22,14.43-4.58,15.6,3.04l21.96-5.01,7.61-1.38,10.66-4.03c1.14-.18.8-1.31-.43-1.2-10.98,5.37-21.78,1.94-18.06.39.46-.19.78-.48,1.53-.32,6.52,1.34,12.46.58,11.38-1.24-.18-.3-.8-1.15-.49-1.81l6.07.49c4.63.37,9.32,1.11,13.61-1.15,1.03-.54.58-1.67-.56-1.29-2.12.71-4.29,1.2-5.99-.77,5.37-3.19,13.5-.13,19.25-4.93-1.69-.36-3.02.21-4.07-1.06,2.55-4.43,10.78.18,16.7-6.5-4.96-.46-9.4-1.36-13.76-.32l-19.35,4.62-30.92,8.58-28.82,3.78-8.98-.06c-6.99,4.38-14.91,6.7-23.14,7.29l-9.33.67c-6.13.44-12.13-.83-17-4.79,6.11-1.04,11.85,1.64,18.92.49l11.56-1.88c-.67-.69-1.66-.93-2.26-1.17-.29-.11-.42-.79.29-1.32,3.39.6,6.63,1.05,9.6-.41-2.51-.2-5.18.5-7-1.45,2.14-2.15,5.41-.32,7.54-1.29l14.93-6.73c-7.77-1.3-14.23.16-22.16-2.56-.63-.22-1.34-.57-1.31-1.21.1-1.95,12.54.27,20.32-1.53-3.07-2.34-8.67-2.17-7.02-4.54,1.01-1.44,8.05,4.01,22.04.3l2.8,1.13,2.29-1.35c4.22-2.49,8.89.21,15.48-2.32-1.64-1.16-3.25-.51-4.55-1.01-.63-.24-.11-1.69.68-1.77,6.46-.71,10.09,1.65,16.75-1.03,1.31-.53,3.36,0,4.47-1.61-7.81-2.19-15.24-3.7-22.81-2.77l-13.93,1.72c-1.14.14-2.53-.8-3.16,1.02,4.27.47,7.93-.16,11.96-1.08.47.2.93.39,1.22.36.39-.04.73,1.26.13,1.41-7.06,1.67-14.12,3.24-21.6,3.3-6.32.05-12.25-2.12-18.46-3.54-2.6.74-5.21.44-7.19-1.57-.8-4.75,4.57-.76,13.6-1.83l19.52-2.31c.93-.11,1.97-.49,2.83-1.41l-8.75-1.83c-4.43-.93-8.51-.47-13.02-.53l-21.01-.3s.03.3.33.42l6.52.84c.81.11,1.24.93,1.07,1.38-.81,2.1-10.68-1.02-17.44.58l-14.92,3.53c-5.29,1.25-11.47-.42-16.52-2.91-.1-1.39,1.12-2.92,2.03-3.1.82-.16,2.66-.23,2.62,1.25.53,1.03,1.8.68,3.3,1.21l16.72-4.98c-3.24-.11-5.38-.05-8.26-.6l-6.98-1.32c-4.82-.91-9.9-2.12-15.04-1.98l-12.96,3.88c.23-2.38,2.61-2.81,4.18-3.97-1.6.37-3.3-.42-4.3-.44-4.25,2.16-6.51,6.22-10.17,4.12,1.33-1.79,3.02-2.14,4.9-3.59-4.44-.72-9.02.29-12.54,3.22-1.9,1.58-3.12.47-4.87.14-3.21-.6-6.3,3.14-9.35,3.46-2.76.28-5.4-.38-8.49.63-2.67.88-6.22-5.34-9.37-2.45-.79.73-2.06.69-2.9.42-.66-.21-2.04-1.98-1-2.34l4.15-1.46c-1.37-.81-2.57-2.29-4.04-2.4-.89.31-1.71.2-2.16-.39-.27-.35,1.6-3.79,2.71-3.26.73.35,1.01,1.34,1.62,2.44,1.3-3.51-1.44-5.93.24-8.53l4.51-6.97c.54-2.25-.6-4.9,2.03-6.72.74.96.77,2.2.47,3.58,4.19-2.1,1.66-8.56,4.67-6.57,1.81,1.2,2.61-1.84,3.54-2.42,6.64-2.34,6.54-9.14,8.83-4.56,6.02-1.32,8.36-7,9.95-3.72,4.58-.25,5.46-6.69,6.89-1.44,2.57-.35,5.13-3.42,7.46-3.17,4.95.55,7.68-3.1,10.74-6.67,1.05,1.94-.39,3.08-1.56,4.48,1.94.74,5.68-4.07,8.41-7.36,1.09,2-.09,3.62-1.63,5.16,4.79.88,6.08-5.58,9.93-8.68.38,2.47-1.21,4.09-2.49,6.31,6.94.53,7.58-7.97,11.69-11.25.51,3.3-1.63,5.32-3.11,7.99,4.14.52,6.86-9.08,9.88-14.39,1.14,3.62-.57,6.22-1.98,9.61,1.58.45,2.82-.85,3.48-2.35l3.89-8.85c.2-.46.62-.48.93-.41.43.1.74.48.59,1.06l-1.57,5.84c2.7-.82,4.65-2.99,5.02-5.28-.74-.31-1.62-.9-1.57-1.47.04-.44.72-1.02,1.19-1.54l3.64-4.05c1.09,1.28.71,2.5.82,4.26,5.45-4.01.93-11.7,7.04-8.35,4.01-5.03,1.94-11.88,3.48-17.25,1.82,1.6,1.64,3.51,1.6,5.7,4.41-2.67-1.58-13.56.93-14.16,1.46-.35,1.38,1.72,2.59,3.85,1.23-7.9-4.55-13.47-3.37-15.45.34-.58.96-1,1.68-.23.39.42.57.68.87,1.51.28.87,1.31.43.57-.18-.71-5.8-2.73-10.99-4.38-16.23-.81-2.58-1.55-4.06-3.14-6.13-4.48-5.86-8.43-12.23-14.04-17.16-1.36-1.2-2.88-2.02-4.26-3.52-3.71-4.03-9.06-6.17-13.29-9.5-4.1-3.22-8.39-4.03-13.25-5.44-4.8-1.39-9.05-2.67-14.13-3.07-5.72-.45-11.25-2.75-17.2-1.69-2.75-1.81-5.72-2.35-8.91-2.03l-8.05-.94c-7.02-1.47-13.67-3.53-20.57-5.59-4.09-1.22-7.95-1.42-12.17-.9-1.15.14-2.8-1.12-3.88-.92l-12.16,2.21c-6.37,1.16-7.96,10.31-9.81,8.16-.37-.43-.17-1.87-.63-2.82l-6.05,10.38c4.48,2.51,7.85-5.48,9.27-2.99,2.37,4.15-6.04,8.42-6.68,12.46-.33,2.12,2.04,2.82,3.18,3.92,4.48,4.3,10.68,6.46,16.61,5.11-.88-1.04-1.26-1.65-1.05-2.04.2-.35,1.05-.86,1.58-.5l4.46,3c.69.47,1.3.05,1.71-.38.24-.25.35-.49-.11-.68l-1.15-.45c-.79-.31-1.25-.71-1.69-1.24-.24-.29.26-1.58.73-1.47,2.85.68,5.33,2.88,8.93,1.78l-5.15-1.99c-.79-.3-.9-1.07-.71-1.51.15-.36.74-.8,1.3-.63l8.12,2.44c1.48.44,3.08.43,4.2-.58-2.26-.81-4.02-1.22-5.55-2.65-.64-.6.04-1.57.58-1.54,1.99.13,5.62,4.23,9.41,2.34l-6.05-1.65c-.65-.18-.35-1.39.1-1.7,2.13-1.43,7.27,2.22,12.36,1.32-.66-1.84-4.07-1.05-4.31-3.12-.39-3.37,5.9,2.21,10.65.72l-6.56-3.11c-.44-.21.54-1.43.99-1.34l1.53.31c4.22.85,7.73,3.09,12.39,2.6-2.56-2.14-5.79-1.93-4.69-4.83,6.51,1.68,9.71,6.89,12.82,4.47-2.84-1.63-6.65-3.03-8.88-5.58,3.36-4.38,7.22,5.41,15.4,6.38.13-1.25-.57-1.72-.76-2.12-.14-.31.54-1,.88-.96,2.35.23,4.96,4.85,10.02,4.43-1.74-1.75-3.64-2.31-5.05-4.57,1.93-1.04,3.16.23,4.42,1.2l7.99,6.17c.46.36,1.22-.2,1.22-.5,0-.9-5.23-4.05-5.53-7.75,5.94,1.67,7.83,9.71,11.57,10.06-1.18-1.14-.64-3.17.29-3.1l6.41,8.22c.46-2.23-2.03-5.09-.11-5.8,2.04-.75,2.58,6.98,8.46,10.84.3-.98.21-1.67.22-2.58s.93-1.32,1.26-1.03c1.05.92,1.44,5.62,4.17,9.3l1.54-3.74,2.7,8.41,1.01-1.83c.3-.55,1-.42,1.38-.01.74.79.25,4.4,1.49,8.06.84-.64,1.07-1.87,2.85-2.37-.25,4.34.05,7.77,1.74,11.22.49-.74.73-1.42,2.03-1.47l-.1,16.56c-.05,8.67-2.97,16.77-8.1,23.77-1.52,2.07-2.56,4.56-5.15,5.7-3.08,1.35-4.61,4.27-7.13,6.25-13.58,10.63-30.16,15.18-46.7,19.06l-12.86,3.02c-26.75,6.27-45.26,18.84-55.72,45.15-.34,1.08.61,1.55,1.2.53.43-.79,1.17-1.24,1.5-.95,1.48,1.29-1.51,6.8-2.84,6.55-.39-.07-.73-.46-1.28-1.18l-2.43,5.15c-1.12,2.37-4.68,3.37-4.74,6.13,2.24-1.84,3.59-3.57,6.29-2.77-1.27,1.23-2.21,1.99-2.29,3.32,2.06-.14,1.77,1.44,1.49,2.49-.19.71-1.22.99-1.75,1.87l-2.87,4.73c-2.2,2.38-4.47,4.46-4.92,7.93.99-.84,1.89-1.54,3.06-1.36.34,4.58-5.15,9.02-1.59,14.15l1.92-4.98c.31-.8,1.02-.95,1.43-1.16,2.6-1.36-1.39,7.36.86,14.71-3.77-.07-3.14-4.18-4.34-5.45-1.85-1.95-3.62-2.87-4.87-6.11-.3,3.73.13,6.67.48,9.98l1.02-1.76c.42-.72,1.17-.35,1.29.11.06.24.55.94.51,1.33l-.95,11.69c-.08,1.05.19,1.7.59,2.24.28.39,1.52.74,1.77.37l.41-6.64c.05-.87.59-1.32,1.25-1.22,2.12.31.16,4.92,1.82,8.88.93,2.21,2.26,4.68,5.19,4.36-.89-3.21-1.43-6.3.23-8.69.41-.59,1.71.13,1.74.56.18,2.28-3.15,7.81,4.6,11.53.49-.86,1.52-1.32,2.01-.87l1.39,1.28c.55.51,1.53.33,1.81.67.26.32.19,1.16-.09,1.36-1.8,1.3-3.68-.42-5.14-.64-2.31-.36-4.29,0-5.77-2.45-2.99.42-5.29-1.27-8.07-2.6-.45-2.19-3.18-1.97-4.3-2.75-4.9-4.54.49-11.07-3.68-15.13l-.7-5.7c-2.37,5.24-2.09,10.72-.87,16.17,2.6.78,3.58,2.91,2.91,5.65.46.49.64.86.72,1.08.25.71,1.03.1.82-.08-.64-.56.25-1.27.47-1.08,3.66,3.16,1.04,10.83,5.17,14.19.08-2.11-.61-4.13,1.44-5.42,1.08,4.1,2.3,7.68,4.44,10.96l-1.71.67c-.24.09-.05.6.25.9,1.8,5.89,2.94,10.77,9.19,11.48-1.88-5.88-6.98-10.59-6.48-16.12.07-.78,1.37-1.06,1.64-.5.91,2.98,1.54,6.1,3.92,8.07-.64-1.7-1.99-3.43-.26-5.27,1.73,3.74,2.93,7.2,6.82,8.93-.72-4.89-4.24-8.44-1.92-10.55,2.87,4.17,3.26,9.96,8.98,11.28,1.59.37,3.47.21,4.68,2.16-1.57,1.31-3.21.55-4.76.59-3.87.1-6.91-.58-9.86-2.94-.62-.5-2.28.11-2.05.63.99,2.23,1.75,4.09,3.43,6.02,4.99-1.8,3.55,4.61,9.76,8.45,1.4.86,2.63,2,4.71.2-3.62-2.62-8.09-7.52-6.79-8.94,1.75-1.9,8.73,12.48,17.61,10.4-3.41-2.01-6.45-4.72-8.41-7.9.3-.8,1.88-.96,2.36-.21,1.3,2.06,3.39,3,5.03,4.52,2.6,2.42,5.21,3.94,8.49,2.76-2.82-2.24-6.14-3.66-6.96-7.5,4.42,3.1,7.74,6.42,12.29,8.87l7.35-.83c.84-.09,1.61.18,1.75.75.08.32-.49,1.15-.9,1.2l-8.66,1.22,7.54,5.35,10.3-2.03c2.13-.42,4.33-1.29,6.73-.07-1.87,1.73-4.11,1.66-6.86,2.56,3.53,3.09,7.8,5.33,12.4,5.68-.24,1.95,1.29,2.59,2.22,2.43l2.42-.42.45,1.94c.1.45,1.31.39,1.69.55l9.06,3.9c-.77,1.6-1.8,1.64-3.23,1.73.55,1.03,1.7.85,2.6,1.29-.07.54-.05,1.83.4,1.76l1.72-.25c1.71.89,3.99,2.12,6.45,1.7l-7-6.98c.64-.5,1.19-1.21.84-1.51l-.92-.79c-4.88-2.29-13.13-7-12.62-8.23.09-.22.65-.75,1.08-.5,6.32,3.78,12.63,6.9,19.74,9.17-.07-1.29-.94-2.55-1.73-3.03-3.92-1.35-8.36-2.33-10.87-6.41l10,3.53c1.04-1.93.02-3.92,2.31-4.42.59-.13,1.52.51,1.95,1.36l3.37,6.82c2.48,5.01,5.9,9.42,11.27,12.42-.82-3.06-4.02-4.54-5.48-7.25l-1.02-1.89c-.27-.5.37-1.64,1.02-1.3,3.29,1.72,4.63,9.31,13.45,12.02l-6.52-7.61c-.81-.94.82-2.52,1.21-2.02,3.61,4.75,7.21,8.79,12.25,11.58,7.36,4.08,16.65,9.24,24.84,10.55-.46-2.78-7.98-3.02-5.99-5.59.49-.64,1.37-1.06,2.23-.68l5.84,2.58c1.91.84,4.4-.89,6.77.72-1.55,2.46-4.27,1.87-7.11.94,1.07,3.57,4.57,5.15,7.61,4.61.42-.07.91-1.1,1.27-.99,1.05.31,1.07,2.2.67,2.42l-3.72,2.06c3.92,4.11,5.88.23,7.24.84.51.22,1.47.97.91,1.7-.27.35-1,1.07-1.67,1.14l-6.11.68c.65,2.35,2.81,2.77,4.87,2.27,3.25-.78,3.1-4.78,6.78-8.9.66-.74-.41-3.2-.1-4.12.91-2.68.46-5.14-.22-7.75l-2.52-9.65c2.72.78,2.58,2.97,3.43,4.74,1.73-5.74-6.4-8.7-1.55-12.05-2.67-2.84-3.64-5.82-5.21-9.18-1.02-2.18-3.29-3.93-2.14-6.93,2.59.9,4.97,2.74,6.61,5,3.55,4.89,10,5.42,11.4,5.98,2.27.91,4.07,2.47,6.6,2.89,4.75.79,8.83,6.55,17.66,8.17l3.67-.14c1.45.61,2.89,1.14,4.13-.1l-12.8-4.12-9.58-4.99c-1.89-.99-3.56-1.75-4.53-3.89-5.7.05-17.03-6.6-17.24-9.11-.03-.37,1.09-1.44,1.36-1.15,2.14,2.26,4.89,3.32,7.4,4.91,3.49,2.21,7.46,3.83,11.47,4.24.81,1.76,2.25,3,4.05,3.81,3.71,1.67,9.8,6.56,11.47,2.73,1.11-2.55-5.63-3.1-4.71-6.14,1.57-.87,3.9.73,5.21,1.53l8.34,5.03c-.04-.76.73-2.15,1.29-1.91,7.08,3,14.23,4.87,21.81,4.05.71-.08,1.19-.18,1.19-1.12-7.58-1.75-15.71-3.08-22.13-7.43-1.3-1.67-2.84-5.09-5.89-4.62-2.68.42-4.29-1.25-6.13-2.69-2.42-1.9-5.98-1.98-8.04-4.62,3.09-1.16,4.99.79,7.43,2.08,1.09.58,3.07.15,4,1.87l2.08-2.27c3.18,2.17,6.28,3.83,10.22,4.04,1.29.74,1.01,1.73-.68,2.24,9.21,5.36,20.2,7.09,31.24,6.67,2.9-.11,5.58-.3,7.86-1.99-7.59-.76-17.27-.32-21.34-5.05,4.16-1.25,7.61,2.25,11.18,1.47-6.58-1.67-12.3-5.07-18.04-9.2-1.45-1.05-3.13-2.05-3.54-3.99,2.86-1.28,4.28,1.41,6.25,2.39,6.57,3.26,13.6,4.86,20.78,6.22,2.79.53,5.42,1.73,8.15.94.3-.09.9-.67.8-.87-.41-.82-6.38-.27-9.54-4.3-.49-.62.46-1.43.98-1.32,2.96.64,4.19,1.63,5.73.45,7.98,1.79,15.85,1.33,23.92.52,1.19-.4,2.11-.82,2.58-2.1-5.96.02-11.21-.97-16.7-2.87l-9.55-3.31c-5.86-2.03-11.49-3.34-17.14-5.89-2.94-1.33-7.07-1.6-8.28-5.26.01-1.03,2.72-1.02,3.82-.66l13.52,4.5c-.01-1.15-.04-1.97.16-2.38.16-.35.89-.67,1.58-.49l9.61,2.59c3.23.87,6.73.83,9.31-1.14l-11.92-5.28c-.47-.21-.78-.61-.94-.8-.31-.38-.09-.61.13-.73,1.47-.82,6.51,2.86,14.81,3.11l1.12-.95,1.13.19c4.75,2.08,12.43,3.77,14.54.7-4.74-.76-9.58-1.51-13.57-4.7,2.49-1.61,4.75.06,6.89-.24,5.61-.78,16.42,3.82,24.98.07-2.79-.85-5.08-.8-7.49-2.61,1.29-1.76,3.28-.51,4.89-.72,1.23-.16,2.87-.29,3.44.74.3.54.32,1.14.04,2.28,4.66.83,8.58-1.69,10.76-5.93-7.11,1.55-13.47,1.32-19.83-1.03-.32-.12-1.14.12-1.33-.02s-.49-.5-.42-1.3l-7.08-.52c-9.25-2.79-14.6,4-17.38-1.5-6.02-.59-9.05,1.91-10.95,1.36l-9-2.6c-.52-.15-.91-.39-1.12-.6-.24-.24-.36-.9-.01-1.24,1.03-1.03,10.64,3,16.96,1.23l-14.31-2.84c-1.04-.21-2.52.3-3.29.58l-9.95,3.68ZM21.28,57.92c3.42.46,6.12-.5,9.18-.89,5.57-.71,10.97-1.3,16.06-4.02,1.16-.62.76-3.72-.27-4.12-1.09-.42-1.96.31-2.45.67-.74.56-.9,1.69-.18,2.92l-8.66,2.22,1.22-2.71c-5.06,2.71-10.43,2.89-14.9,5.92ZM16.06,58.06c.4-.11.38-.55.01-.65l-5.5.09c1.3,2.41,2.91.43,5.49.57ZM50.18,59.86c-.29-.98-1.34-1.5-2.18-1.12-.43.19-1.05.57-1.73,1.01,1.58.34,2.45.25,3.92.1ZM241.95,228.82c.6.33,1.8.16,2.7,0-.28-.95-1.39-.5-1.77-.69-1.13-.58-2.89-.87-4.05-.08,1.38.24,2.18.28,3.12.78ZM47.1,232.32c-.91-2.46-6.28,4.45-6.55,8.89,2-3.15,3.53-6.04,6.55-8.89ZM257.46,250l8.36-.98c2.63.43,4.07-1.24,5.97-1.69,4.49-1.06,8.65-1.43,12.94-3.19,5.37-2.19,10.66-4.4,16.04-6.76l9.3-4.07h-14.77s-13.48,2.54-13.48,2.54c-1.91.36-3.65,2.85-6.53,1.81-1.93-.7-4.8.83-7,1.03l-29.31,2.64c3.66.82,6.31,2.22,5.63,5.4-.56,2.61-3.09,3.51-4.78,5.82l11.78-1.51c2.11-.27,3.63-.79,5.86-1.05ZM40.96,253.06c.3-.6,1.96-1.18,1.55-2.52-1.43-4.62,2.53-7.58,2.33-11.69-4.3,5.19-8.9,14.74-8.05,21.62,2.53-1.94,2.68-4.42,4.18-7.41ZM357.38,256.3c4.42.51,7.55-2.05,10.28-4.93l-3.98,1.58c-2.3.91-4.39,1.66-6.3,3.35ZM343.98,265.9c3.83-1.43,8.2-3.36,12.09-6.43-5.09-1.18-9.8,2.99-16.22,4.67l4.13,1.76ZM341.85,267.42l-5.81-.41c-1.2-.08-2.35.18-3.43.71-4.12,2.03-8,2.54-12.43,3.73,8.7,2.25,14.64.51,21.67-4.03ZM30.66,270.34c.81-1.45.32-2.21-.01-2.61-.5,1.19-.34,1.94.01,2.61ZM36.95,279.83c.81-3.89.74-6.74-.54-9.67-1.6,3.6-.93,6.95.54,9.67ZM237.15,274.56c-.97-2.46-3.12-2.13-4.37-.9,1.56.8,3.01.61,4.37.9ZM325.12,274.28c-5.78.07-11.2.67-16.74,3.32,5.91,1.64,11.64-.51,16.74-3.32ZM347.75,276.93c-4.03-2.31-6.05-2.2-9.39.09,3.2.44,6.33.59,9.39-.09ZM39.54,282.55l1.01-1.72c.3-.52-.45-1.44-1.11-1.52-.17,1.2-.26,1.88.1,3.24ZM340.16,280.98c-3.03-.94-4.74-2.16-7.44-1.25,2.54,1.86,5.22,1.69,7.44,1.25ZM300.73,282.13c2.91,1.41,6.23.49,8.45-1.78-4.98-.47-9.24-.54-13.85.92l5.41.86ZM339.73,284.18l-10.16-2.51c-1.23-.3-2.53-.34-4.1.65,4.53,1.06,9.1,2.64,14.26,1.86ZM42.28,282.21c-1.39,3.3-.22,6.89,2.65,9.24,1.11-4.76-1.66-5.8-2.65-9.24ZM358.77,284.81l-3.79-2.44c-3.89.06-8.05.1-11.13,2.51,4.97.94,9.53.67,13.91.31-.14,1.69,1.95,1.01,1.01-.38ZM277.58,289.33c1.94-1.38,3.09-.11,4.65-.49l15.99-3.89c-.1-.4-.06-.76-.04-1.03l-17.15,2.09-12.55,3.67c3.11.53,6.98,1.17,9.09-.34ZM346.71,287.78c-2.26-.25-4.01-.68-6.33.37,2.34,1.41,4.58.84,6.33-.37ZM47.76,305.12c-3.72-6.87-.45-12.97-6.01-13.25,2.72,6.71.29,13.69,6.01,13.25ZM262.96,292.67c-3.14-1.2-5.4-.63-8.18-.39,2.64.74,5.17,1.93,8.18.39ZM303.96,293.8l-5.78-1.32c-1.34.15-2.53.25-3.89,1.22,3.1.81,6.31,1.5,9.68.11ZM303.4,296.9c-7.73-.08-16.35-3.23-17.38.34,5.81.66,11.6,1.45,17.38-.34ZM51.88,304.2c-1.36-2.06-.32-5.35-3.34-7.16.16,5.45,2.67,9.91,5.94,13.87.16-2.9-1.25-4.66-2.59-6.7ZM349.78,310.42c-1.26-.55-2.04-.83-2.17-1.17-.09-.23.2-1.06-.34-1.12l-9.18-1.02,2.93,2.2c2.28,1.71,6.1,1.46,8.77,1.12ZM334.19,312.39l11.86,1.81c7.69.35,15.53-1.73,21.85-5.96-3.42-1.25-6.47-.18-9.83.28-2.11.29-4.87-.08-6.47,1.28-.11.41.91,1.09,1.21,1.26.31.17-.07,1.14-.75,1.28-7.89,1.65-14.55-3.07-17.87.06ZM214.73,310.5c.49.01,1.14-.55,1.2-1.31l-3.6-.21c-.93,1.44-2.63.98-3.69.86-.28.15-.37.41-.38.5l6.47.16ZM53.15,314.85c-1.25-1.58-2.42-3.23-4.39-3.68l6.62,8.08.63-.78-2.86-3.62ZM69.35,319.42c-4.49-3.27-5.83-5.03-7.03-2.85,2.97,3.75,7.25,9.33,10.87,7.83-1.3-1.49-2.2-3.79-3.84-4.99ZM61.56,325.79c-1.16-1.59-2.13-3.02-3.74-2.33,2.4,3.06,4.1,6.09,7.51,7.18-.04-2.63-2.54-3.17-3.77-4.85ZM70.12,329.46c-.78-.94-2.05-1.5-3.44-.91,2.19,1.68,3.81,3.34,6.36,4.45l-2.93-3.55ZM109.44,333.98c-4.29-4.72-11.43-6.09-17.45-4.86l6.65,4.43c3.17,1.42,7.2.88,10.8.43ZM337.64,328.55l-6.15-.09c-.7.39-.76,1.01-.43,1.19,2.69.1,4.41.2,6.58-1.1ZM87.89,334.02c-1.83-1.63-3.11-3.68-5-3.86l-8.05-.75c2.97,3.31,9.01,5.73,13.05,4.62ZM94.42,334.82c-2.24-2.88-3.71-4.55-6.81-4.6l3.15,3.31c1.06,1.11,2.38,1.96,3.65,1.29ZM128.01,340.04l-6.94-4.82c-1.5-1.04-4.08-.02-5.38.38,1.84,2.56,4.18,2.9,6.33,4.1,1.89,1.07,3.97,2.38,5.99.34ZM82.29,340.61c-2.25-2.53-4.65-4.47-8.23-4.59,2.3,2.45,4.8,4.15,8.23,4.59ZM119.22,341.38c-5.16-4.32-6.75-6.63-13.08-4.17.77,2.12,2.92,2.26,4.6,3.2,2.69,1.51,5.25,2.77,8.48.96ZM98.83,342.94l-4.14-2.99c-2.42-1.75-5.16-3.49-7.99-1.66,2.36,3.06,8.09,4.69,12.13,4.65ZM102.86,342.87c-.57-2.55-1.03-3.53-2.07-4.31-1.24-.93-2.84-.7-4.15-.29l6.22,4.6ZM254.33,350.29c-5.68-2.79-10.48-6.71-16.12-10.58.76,3.6,3.47,5.48,6.4,7.23,4.1,2.46,8.17,5.85,9.72,3.36ZM108.22,343.36c-.02-1.13-1.18-1.75-2.48-2.1-.37.53-.2,1.66.2,1.72l2.28.38ZM135.98,350.03c-2.77-.98-4.07-2.35-3.97-4.7l3.1-1.05c-1.04-1.44-2-1.81-3.5-1.65-1.12.11-2.03,1.54-2.98,2.27-2.84-.33-6.31-.89-9,.93,1.12,1.67,3.46.94,5.12,1.48,2.79,2.68,8.22,4.43,11.22,2.73ZM101.33,349.86c-4.46-3.03-9.29-4.77-14.89-5.54,2.89,2.59,6.27,3.79,10.12,4.15,1.62.15,2.91,1.54,4.78,1.39ZM144.69,348.51l-7.57-3.22c-.75-.32-1.35-.43-1.84.33-.25.39-.11,1.04.9,1.49,1.73.75,1.72,3.69,8.51,1.41ZM289.41,348.59l-8.22-1.39c-3.12-.53-5.92-2.03-9.12-1.74-.24,1.14.56,1.41,1.31,1.18,5.02,2.73,10.41,3.93,16.04,1.95ZM123.15,350.1l-13.92-3.33c4.15,3.4,14.01,6.25,13.92,3.33ZM111.65,351.29c-2.91-1.53-5.02-3.79-8.85-3.9,2.66,2.07,5.21,3.93,8.85,3.9ZM266.52,355.28c-6.28-1.38-11.83-.4-17.52-2.3l-7.04-5.33c-.83,1.64.42,3.07,1.75,3.26,1.09.15,8.74,9.51,22.81,4.37ZM163.01,353.93c.73.52,1.39.39,1.71.08.58-.56.1-1-.25-1.52l-2.85-4.26c-1.82.92-3.49.4-5.77.55l7.17,5.14ZM149.67,358.24c-1.32-1.18-3.23-2.36-4.53-2.83l-5.04-1.83-5.18,1.18c4.73,2.69,9.51,4.88,14.75,3.48ZM154.81,356.51c-2.12-1.02-3.42-2.65-6.02-2.64,1.48,1.59,3.21,3.31,6.02,2.64ZM127.42,358.35l-5.63-2.16c-1.95-.75-3.71-1.66-6.12-.8,4.39,2.08,10.85,5.46,11.74,2.96ZM125.24,355.39c4.29,1.45,8.06,4.05,13.15,3.69-3.56-2.18-9.8-4.67-13.15-3.69ZM171.06,361.27c-1.49-3.42-4.73-2.22-7.08-4.83l-2.37,2.48c3.14,1.67,6.11,2.19,9.45,2.34ZM246.44,357.6c.06.53.29.68.51.74.49.14,1.29.22,1.62-.54-1.09.14-1.42-.53-1.79-.62-.93-.21-1.58-.63-2.37-.45.32,1.33,1.32,1.21,2.03.87ZM167.09,363.33l-13.53-3.28c3.79,3.02,8.74,4.45,13.53,3.28ZM189.7,361c-.37.08-.93.84-1.51.6l-1.7-.68c-1.23-.49-2.7-1.91-4.1-.75,2.98,2.37,5.48,3.91,8.53,5.42-.33-1.1-.81-2.04-.47-2.49.51-.67,1.58-.52,2.54-.43-.71-.6-2.21-1.54-3.3-1.69ZM153.27,364.1c-.77-2.08-2.76-3.05-4.47-1.74,1.31,1.11,2.83,1.61,4.47,1.74ZM149.38,365.66c-3.5-2.23-6.82-2.82-10.72-2.58,3.29,1.64,6.7,3.07,10.72,2.58ZM201.81,367.86c-2.96-1.9-5.53-3.3-8.36-4.87,1.83,3.22,5.37,4.22,8.36,4.87ZM174.47,363.83c-1.45-.81-2.21-.32-2.61.01,1.19.5,1.94.34,2.61-.01ZM163.62,366.28l-5.84-.06c2.56,1.39,5.3,2.09,8.48,1.59-.62-.74-1.66-1.52-2.65-1.53ZM178.37,367.07c-1.15-.83-2.24-1.47-3.94-.85,1.16.81,2.21,1.46,3.94.85ZM120.66,425.17c3.5.93,6.83,1.76,9.97.97l9.8-2.48c4.16-1.05,7.54-4.96,10.39-8,.73.03,2.04.16,2.3-.55.76-2.1,3.44-2.75,5.22-5.52,1,.77,1.66,1.88,2.23,2.1,1.15.05,1.22-1.36,1.33-2.01.26-1.45-2.53-2.85-2.73-3.84s2.28-2.19,1.66-2.95c-.29-.36-.86-.61-1.65-.95l3.4-3.15c-1.14-.38-1.41-1.21-1.19-1.56.21-.33.54-.9,1.62-1.11-1.07-2.07.54-3.41,2.41-4.13.24-.09-.07-.93-.31-.92-.26.02-.99.26-1.81-.49l3.88-2.91c-.81-.81-1.67-.9-3.26-1.29,1.41-1.32,2.56-1.22,4.56-1.86l-4.95-1.41c1.42-1.14,2.81-1.4,4.82-2.07-1.65-.74-3.33-.43-5.52-.63-.66.32-.68,1.12.06,1.68-1.54,8.35-4.33,16.23-8.61,23.6-4.99,8.58-19.27,7.92-29.44,7.66-6.14-.16-11.52,1.55-16.83,4.14-.71,2.35-2.6,2.86-5.07,3.7l5.58,1.23c3.4-.13,7.22-1.68,10.72-2.58.62-.16,1.35-1.74,1.98-1.73.5,0,1.86,1.22,2.37,1.07,2.56-.77,5.32-2.51,8.24-1.76,1.21-2.06,3.27-2.05,4.99-.57,1.33-2.17,3.12-1.79,4.65-2.22.93-.26,1.77-1.31,2.46-1.24,1.05.12,1.97,1.14,1.72,2.15-.53,2.18-3.03.81-3.95,1.25-1.58.74-2.86,2.09-4.81,1.71-1.69-.33-2.77,2.15-2.98,2.17-1.39.16-2.16-1.9-3.51-.86-.3.23-.75.46-1.03,1.56-2.98-1.47-5.35.7-8.08,1.68l-5.53,1.99,4.88.12ZM230.57,385.69c-2.64-.09-3.72-.47-5.79-1.16-.19,1.94.93,2.5,2.59,2.76,1.26.2,2.76.44,3.2-1.6ZM226.97,418.73c.39-.76.35-1.53.06-1.79-.23-.2-1.13-.05-1.5.09l-1.64.62c-.61.23-1.46-.34-1.13-1.32.24-.72.93-2.15.54-2.46l-1.6-1.26c.28-1.16,1.57-1.94,2.56-2.87-1.07-.77-1.8-1.92-1.06-2.96l1.82-2.57c-.31-.41-1.27-1.46-.84-2.08,1.31-1.86,3.01-2.36,2.33-3.01-.46-.45-.87-.56-1.88-.87l2.87-2.74c-.6-.4-1.15-.81-1.25-1.1-.06-.19.16-.71.41-1.04l2.49-3.31-4.42-1.2-1.24,6.47-4.42,14.12c-2.88,9.21-12.96,8.42-10.04,12.03,2.26-1.78,4.28-2.96,5.25-1.75.42.53.35,1.32-.09,1.91l-3.54,4.77c-.7-.11-1.75.35-1.24,1.53l-9.25,6.52,8.12-1.33c4.73-.77,5.96-8.17,11.71-11.96,2.06-1.36,6.38-1.29,6.27-1.07l.69-1.36ZM170.09,413.2c-.06-3.16-5.47-3.49-5.65-2.76-.17.68-.38,1.23-.06,2.15,2.03-.45,3.21-.22,5.71.62ZM233.07,422.14c-1.08-1.82-2.44-2.07-3.65-3.19l-2.05,2.42,5.7.77ZM174.69,428.06l6.31.36c1.58-1.45,3.65-2.29,5.78-2.9,2.88-1.04,5.72-1.57,8.51-3.29,2.54.19,5.62-.41,7.16-2.57-2.57-.07-3.72,1.38-5.65,1.93-2-1.14-4.24-1.34-5.54.46-3.33-.39-5.77.71-8.76,1.04-2.03,3.32-4.93,2.99-7.83,4.97ZM200.1,427.18l4.83-2.86c1.38-.82,2.21-1.25,3.25-2.74l-7.11,1.62c-5.28,2.15-10.65,3.65-15.45,7.08l7.5,1.36c2.47-.24,4.68-3.1,6.99-4.47Z"/>
    <path class="cls-1" d="M91.38,39.75c-.41,1.13-5.66,1.6-9.3.37-.61,2.78-2.59,4.6-4.23,5.37-3.86,1.8-11.65-.4-11.02-4.18.48-2.84,2.84-6.11,5.69-7.37,3.68-1.63,7.88-.95,11.27.62l7.01,3.25c.67.31.77,1.41.58,1.93Z"/>
    <path class="cls-1" d="M274.49,317.32l-11.36-.52c-3.42-.16-6.98-2.18-6.99-2.78-.06-2.87,10.9,2.48,17.51.91-5.88-2.12-11.39-3.05-16.62-6.26-.3-.96.55-1.69,1.5-1.52,3.05.25,5.36,1.4,7.87,2.57,6.31,2.94,14.07,1.05,16.01,2.24,2.12,1.3-2.11,1.46-5.38,3.53-.65.95-.91,1.89-2.53,1.82Z"/>
    <path class="cls-1" d="M185.44,245.77c-.96.26-8.78-.71-11.39-2.27.07-4.19,4.31.45,10.73-2.41,1.54-.69,3.56-1.04,5.24.2l5.94-1.79c1.99-.6,4.05-.99,6.02.4-.85,1.05-2.06,1.9-3.44,2.28l-13.1,3.59Z"/>
    <path class="cls-1" d="M200.49,352.12c5.66,6.34,13.11,9.72,9.3,10.09-2.8.27-3.76-3.02-5.63-2.41.79.78,2.41,2.76,1.75,3.72-2.47,3.59-18.75-10.79-14.95-11.9.35-.1.71-.1,1.56.34,2.33,3.01,4.26,6.64,8.04,7.79l1.04.31c.28.09,1.12-.72.86-1.15l-3.51-5.83c-.3-.49-.09-1.04.14-1.22.27-.21,1.08-.1,1.4.26Z"/>
    <path class="cls-1" d="M239,320.4c1.52,3.35-20.54,5.25-26.92,1.28-.74-.46-.02-2.19.81-1.98,8.11,2.04,16.42,2.53,24.69.1.7-.2,1.27.28,1.42.6Z"/>
    <path class="cls-1" d="M302.5,303.05l-7.7,1.53c-8.22,1.63-19.52-1.1-18.82-3.22.14-.44,1.26-1.13,1.87-.9,13.91,5.27,23.85-.45,25.42.85.32.27.21,1.54-.76,1.73Z"/>
    <path class="cls-1" d="M294.08,309.01c-7.7,1.42-18.39,2.36-23.19-2.45-.17-.52,1.01-1.36,1.5-1.25l2.24.5c5.25,1.18,9.84,2.26,15.31,1.67,1.25-.13,3.05-.89,4.13,1.52Z"/>
    <path class="cls-1" d="M148.12,325.33c-1.37,4.19-11.08-2.04-15.71-5.78-1.09-.88.46-3.35,1.21-2.75,4.44,3.55,8.62,6.66,14.51,8.53Z"/>
    <path class="cls-1" d="M320.75,317.85c2.74,1.01,11.6,2.33,7.48,3.91-2.58.99-13.22-2.98-18.43-6.27-.29-.18.49-1.15.9-1.07l1.59.31,8.46,3.11Z"/>
    <path class="cls-1" d="M259.92,333.66c.46.16,1.44.27,1.54.8.76,4.06-18.05-3.26-17.66-5.8.14-.87,1.16-1.59,2.15-.92l3.05,2.04,10.92,3.88Z"/>
    <path class="cls-1" d="M152.99,323.11c-1.76-3.61,2.12-2.5,5.87,1.88-9.92,1.76-19.71-5.94-15.21-6.28.59-.04,1.28.32,2.13.75l7.21,3.64Z"/>
    <path class="cls-1" d="M60.17,229.6c-2.09,4.47-3.82,8.38-5.75,13.13-3.77-4.89,2.09-14.9,5.75-13.13Z"/>
    <path class="cls-1" d="M91.33,206.86c-1.46-2.95.45-5.29,2.13-7.32l6.82-8.27c.42.69.56,1.96.35,2.61l-9.3,12.98Z"/>
    <path class="cls-1" d="M264.66,331.22c.41.64.17.86.04,1.05-1.56,2.26-14.4-3.87-14.11-5.53.85-4.88,6.8,3.4,14.08,4.48Z"/>
    <path class="cls-1" d="M209.13,106.88c.64,7.87-1.49,9.86-1.91,7.83-.54-2.57-.8-5.3-.49-7.72,1.12-.96,1.77-2.03,2.16-3.89,3.28,2.2,4.49,5.92,2.6,9.66l-2.35-5.88Z"/>
    <path class="cls-1" d="M207.64,234.91l-7.02-.87c-2.19-.27-4.62.14-6.59-1.72,4.2-2.52,13.43-1.95,13.6,2.59Z"/>
    <path class="cls-1" d="M109.77,180.76c-5.77,2.04-9.38,7.2-14.97,10.31-.65-2.02,1.02-2.3,1.74-3.07,3.92-4.19,10.83-10.58,13.23-7.24Z"/>
    <path class="cls-1" d="M90.29,301.8c-2.69,1.15-5.57-4.63-4.81-8.95,1.63-1.2,3.71,1.17,4.54,2.86.81,1.64.51,3.7.27,6.09Z"/>
    <path class="cls-1" d="M164.38,292.63c.08.45-.75,1.35-1.12,1.36-3.21.08-8.68-9.31-5.64-10.25,1.87-.58,2.97,5.27,6.76,8.9Z"/>
    <path class="cls-1" d="M232.39,372.35c.43-4.56-3.38-8.37-.65-11.77,2.43,2.02,4.11,7.46,3.46,9.6-.36,1.19-1.15,1.68-2.81,2.17Z"/>
    <path class="cls-1" d="M230.37,356.95l-2.36-11.33c-.29-1.39-1.25-2.64.31-4.09,2.08,2.61,2.97,5.66,3,9.17.5,1.9,1.62,4.08-.95,6.26Z"/>
    <path class="cls-1" d="M200,132.4l-.67,1.18c-.27.49-.99.75-1.39.17-.2-.3-.49-.63-.19-1.39l1.8-4.66c.41-.27,1.55.36,2.13,1.2.66-1.66-.13-3.81,1.75-5.77,1.85,2.71.76,7.03-1.27,9.08-.19.19-1.13-1.06-1.26-.91l-.9,1.09Z"/>
    <path class="cls-1" d="M137.5,325.93c.42.35-1.07,1.34-2.04.85-7.49-3.81-11.16-9.22-9.03-9.01,2.41.23,6.13,4.94,11.06,8.17Z"/>
    <path class="cls-1" d="M63.25,236.2c-2,3.17-.86,8.63-3.27,8.19-4.28-.78,3.05-14.42,4.16-9.94.17.67-.56,1.24-.89,1.76Z"/>
    <path class="cls-1" d="M215.6,358.96c.33.74-.72,1.81-1.52,1.35-5.54-3.16-10.43-9.67-6.22-9,2.3,2.61,4.62,5.35,7.74,7.65Z"/>
    <path class="cls-1" d="M57.91,253.74l-2.66,11.61c-2.81-4.64.12-14.46,2.66-11.61Z"/>
    <path class="cls-1" d="M151.74,281.17c.97.22,4.31,6.41,5.61,10.59-5.54-2.31-8.35-11.21-5.61-10.59Z"/>
    <path class="cls-1" d="M78.61,308.47c-4.07-2.53-4.95-6.89-5.29-11.13,2.38-.32,4.83,6.73,5.29,11.13Z"/>
    <path class="cls-1" d="M85.05,303.03c.37.75.23,1.6-.38,2.08-1.34,1.06-4.78-5.49-4.18-11,3.16,2.33,3.1,5.97,4.56,8.91Z"/>
    <path class="cls-1" d="M67.92,210.61l-4.69,9.77c-2.82-8.41,6.24-12.99,4.69-9.77Z"/>
    <path class="cls-1" d="M170.76,293.14c.34.85.39,1.2.22,1.48-1.11,1.9-4.02-1.03-6.55-4.62l-1.2-1.7c-.35-.5.66-1.86,1-1.56,2.39,2.11,3.93,4.73,6.52,6.4Z"/>
    <path class="cls-1" d="M280.59,260.72c-3.86,1.69-8.7.87-12.16-.94.32-1.96,2.4-1.55,3.61-.99,2.83,1.31,5.72.06,8.56,1.93Z"/>
    <path class="cls-1" d="M84.22,228.63c3.14-.67,2.72,7.52,2.28,8.24-.25.42-1.16.63-1.6.34-.09-.06-2.95-6.95-.68-8.58Z"/>
    <path class="cls-1" d="M208.63,131.39c-2.62-1.29-1.75-8.5.94-9.08,1.42,3.2.33,6.35-.94,9.08Z"/>
    <path class="cls-1" d="M65.11,275.98c-.62,2.55.83,5.21-1.15,7.82-2.09-3.6-1.32-7.89.14-11.63,1.82.84,1.42,2.11,1.01,3.81Z"/>
    <path class="cls-1" d="M93.49,296.07c-.29,1.04-1.7.83-2.16.46-.94-.77-2.36-5.94.37-7.65,1.52,1.98,2.52,4.53,1.79,7.2Z"/>
    <path class="cls-1" d="M79.59,235.47c-3.11-2.31-3.09-6.51-.91-9.36,1.75,2.77,2.04,6.05.91,9.36Z"/>
    <path class="cls-1" d="M290.18,331.34c-3.97-1.29-8.36-3.16-8.15-4.58.1-.67,1.14-1.27,2-.76l3.58,2.09c1.11.64,3.12.74,2.56,3.26Z"/>
    <path class="cls-1" d="M226.45,349.91c-2.84-.85-2.36-3.7-3.69-5.31-.63-.77-.5-1.51.1-1.9,1.41-.93,5.02,3.28,3.59,7.21Z"/>
    <path class="cls-1" d="M92.39,232.66c.21.42,1.84.14,1.88,1.08.02.62-.03,1.69-.98,2.03-1.41.51-3.11-.54-3.53-1.55-.68-1.61-.58-3.9,1.05-4.69l1.58,3.14Z"/>
    <path class="cls-1" d="M111.72,278.45l1.95,1.45c.66.49.51,1.81-.32,2.06-1.2.37-4.7-1.31-5.31-3.04-.35-1,.08-1.83,1.07-1.9s1.67.75,2.61,1.44Z"/>
    <path class="cls-1" d="M70.38,59.75c.04.67-1.67.8-2.41.37l-4.5-2.61c-.52-.3-.45-.8-.51-1.03-.48-2.03,4.29-.31,7.42,3.28Z"/>
    <path class="cls-1" d="M213.23,90.27c-1.02,1.68-4.68-3.32-4.7-3.57-.05-.59.34-1.67,1.76-1.38,1.67.34,4.34,2.65,2.95,4.95Z"/>
    <path class="cls-1" d="M151.46,251.13c-1.62.02-1.91-3.75.06-4.48,1.39-.52,2.43.65,2.6,1.63.15.89-.4,2.82-2.66,2.85Z"/>
    <path class="cls-1" d="M181.86,306.19c-2.87,1.11-6.46-.32-7.94-3.73,2.72.6,5.38,1.03,7.94,3.73Z"/>
    <path class="cls-1" d="M115.73,277.94c-1.68.83-3.69-2.64-3.55-4.19,1.11-.95,2.32,0,3.23.51.8.45,1.75,2.97.32,3.67Z"/>
    <path class="cls-1" d="M271.29,304.93c-3.52,1.82-8.98-.22-8.81-1.13.24-1.28,5.09-.7,8.81,1.13Z"/>
    <path class="cls-1" d="M58.78,268.7c-1.86.05-2.23-4.67-.28-4.87,2.18-.23,2.52,4.81.28,4.87Z"/>
    <path class="cls-1" d="M178.33,293.95c-2.82.61-5.1-1.8-5.94-4.69,2.54.64,4.74,2.05,5.94,4.69Z"/>
    <path class="cls-1" d="M102.14,230.93c.07,1.45-1.42,2.26-2.6,2.5-1.48.31-3.04-.02-3.28-2.26,1.82-.51,2.9-.36,5.88-.24Z"/>
    <path class="cls-1" d="M94.76,174.29c1.78,1.75-1.72,3.14-6.1,5.15.83-3.06,3.54-4.33,6.1-5.15Z"/>
    <path class="cls-1" d="M189.92,60.09c.69-1.72,3.62-.74,4.85.91.58.78-.29,2.49-1,2.16-1.59-.72-2.61-2.03-3.85-3.08Z"/>
    <path class="cls-1" d="M221.62,350.34c-1.88-.81-3.64-3.15-3.47-5.43,2.38.66,4.39,1.92,3.47,5.43Z"/>
    <path class="cls-1" d="M194.68,256.41c-2.51,1.63-4.88-.24-6.85-1.88,2.41-.37,4.53-.33,6.85,1.88Z"/>
    <path class="cls-1" d="M79.92,185.43c.95.84-.84,2.97-3.81,3.47-.8-2.03.91-3.56,2.73-3.77.6-.07.88.12,1.09.3Z"/>
    <path class="cls-1" d="M187.69,335.36c-2.83.81-4.77-1.54-5.22-3.89,2.38.49,4.07,1.4,5.22,3.89Z"/>
    <path class="cls-1" d="M65.01,262.52c-1.63-2.18-1.42-4.55.47-6.13,1,2.08,1.12,3.95-.47,6.13Z"/>
    <path class="cls-1" d="M174.79,57.29c-1.41.87-2.11-.86-2.23-1.52s-.38-2.47.85-2.6c1.15-.03,2.69,3.31,1.38,4.12Z"/>
    <path class="cls-1" d="M118.14,273.94c-1.37.32-2.81-3.18-1.6-3.84,1.22-.67,1.87.61,2.02,1.24.16.66,1.05,2.26-.41,2.6Z"/>
    <path class="cls-1" d="M74.8,198.36c-1.39-1.49,1.27-4.42,2.49-3.53,1.2.86-.64,4.14-2.49,3.53Z"/>
    <path class="cls-1" d="M177.79,47.9c.51-.55,3.77,1.29,3.94,2.2.07.38-.19,1.02-.54,1.11-.91.24-4.65-1.98-3.41-3.31Z"/>
    <path class="cls-1" d="M73.99,225.82c-.56,1.09-.72,2.19-2.02,2.36-.74-1.41-.66-3.98,1.2-4.51.84-.24,1.25,1.33.82,2.15Z"/>
    <path class="cls-1" d="M71.05,259.18c-1.39.18-1.72-1.68-1.1-2.48.4-.51.55-1.87,1.93-1.73.56,1.26.17,4.02-.83,4.21Z"/>
    <path class="cls-1" d="M206.9,77.88c-.89.79-3.02-2.09-2.07-3.18.81-.93,3.75,1.69,2.07,3.18Z"/>
    <path class="cls-1" d="M210.92,335.68c-2.56.55-4.12-1.43-4.09-3.5,1.93.59,3.18,1.62,4.09,3.5Z"/>
    <path class="cls-1" d="M156.8,255.01c-1.16,0-1.63-2.5-.83-3.05,1.21-.83,2.01.16,2.29,1.03.19.58.21,2.02-1.46,2.02Z"/>
    <path class="cls-1" d="M165.22,276.35c.8-.62,1.55-.17,1.87.56s.19,1.2-.17,1.55c-.64.61-1.62.68-2.33.21-.62-.41-.18-1.7.62-2.32Z"/>
    <path class="cls-1" d="M197.87,96.95c-.89-.35-1.95-3.46-.28-3.88,1.05-.27,2.08,3.04.28,3.88Z"/>
    <path class="cls-1" d="M137.39,303.04c-.85.28-1.92-2.02-1.3-2.51.95-.76,1.49.09,1.73.46.28.44.66,1.69-.43,2.05Z"/>
    <path class="cls-1" d="M166.09,263.62c-.32,1.19-1.84.48-2.05-.2-.14-.48-.43-1.27.49-1.89.48.15,1.82,1.07,1.55,2.09Z"/>
    <path class="cls-1" d="M115.79,169.97c-.72.05-1.57-.38-1.92-.66.67-1.07,1.41-1.47,2.14-1.29.56.13.96.4,1.05.69.14.48-.22,1.18-1.27,1.26Z"/>
    <path class="cls-1" d="M81.93,217.71c-.51.85-1.29.42-1.51-.2-.18-.52-.31-1.26.46-2.07.55-.58,1.32-.03,1.37.38.04.34.2,1.01-.32,1.89Z"/>
  </g>
  <g>
    <path class="cls-2" d="M370.11,49.77c4.65,0,8.98,1.21,13,3.64,4.01,2.43,7.23,5.94,9.65,10.55,2.43,4.6,3.64,10.28,3.64,17.01,0,6.34-1.11,11.91-3.34,16.71s-5.2,8.84-8.91,12.1c-3.71,3.27-7.82,5.72-12.33,7.35-4.51,1.63-9.04,2.45-13.59,2.45-3.27,0-6.19-.25-8.76-.74-2.58-.5-4.85-1.14-6.83-1.93l-8.02,2.23V20.07c0-2.77-.42-4.55-1.26-5.35-.84-.79-1.96-1.19-3.34-1.19-1.29,0-2.65.2-4.08.59-1.44.39-2.75.89-3.94,1.48l-1.49-3.42L346.2.31l.89.89c-.1.79-.22,2.92-.37,6.39-.15,3.47-.22,7.58-.22,12.33v43.37c2.57-3.66,5.82-6.83,9.73-9.51,3.91-2.67,8.54-4.01,13.89-4.01ZM362.09,112.9c6.44,0,11.73-2.15,15.89-6.46,4.16-4.31,6.24-11.12,6.24-20.43,0-8.51-1.73-15.2-5.2-20.05s-7.97-7.28-13.52-7.28c-3.37,0-6.68.89-9.95,2.68-3.27,1.78-6.29,3.96-9.06,6.53v38.92c2.38,2.48,5.02,4.11,7.95,4.9,2.92.79,5.47,1.19,7.65,1.19Z"/>
    <path class="cls-2" d="M430.61,102.65c0,3.47.35,5.99,1.04,7.57.69,1.59,1.95,2.63,3.79,3.12,1.83.5,4.43.79,7.8.89v3.42h-33.42v-3.42c2.18-.1,3.91-.39,5.2-.89,1.29-.49,2.23-1.53,2.82-3.12.59-1.58.89-4.11.89-7.57v-33.57c0-2.77-.42-4.58-1.26-5.42-.84-.84-1.95-1.26-3.34-1.26-1.29,0-2.65.22-4.09.67s-2.75.92-3.94,1.41l-1.49-3.42,25.7-11.74.89.89c-.1.8-.22,2.92-.37,6.39-.15,3.47-.22,7.57-.22,12.33v33.72ZM424.67,35.36c-2.18,0-4.01-.74-5.5-2.23-1.48-1.49-2.23-3.32-2.23-5.5s.74-3.86,2.23-5.35c1.49-1.48,3.32-2.23,5.5-2.23s4.01.74,5.5,2.23c1.49,1.49,2.23,3.27,2.23,5.35s-.74,4.01-2.23,5.5c-1.49,1.48-3.32,2.23-5.5,2.23Z"/>
    <path class="cls-2" d="M492.53,49.77c4.65,0,8.98,1.21,13,3.64,4.01,2.43,7.23,5.94,9.65,10.55,2.43,4.6,3.64,10.28,3.64,17.01,0,6.34-1.11,11.91-3.34,16.71s-5.2,8.84-8.91,12.1c-3.71,3.27-7.82,5.72-12.33,7.35-4.51,1.63-9.04,2.45-13.59,2.45-3.27,0-6.19-.25-8.76-.74-2.58-.5-4.85-1.14-6.83-1.93l-8.02,2.23V20.07c0-2.77-.42-4.55-1.26-5.35-.84-.79-1.96-1.19-3.34-1.19-1.29,0-2.65.2-4.08.59-1.44.39-2.75.89-3.94,1.48l-1.49-3.42L468.62.31l.89.89c-.1.79-.22,2.92-.37,6.39-.15,3.47-.22,7.58-.22,12.33v43.37c2.57-3.66,5.82-6.83,9.73-9.51,3.91-2.67,8.54-4.01,13.89-4.01ZM484.51,112.9c6.44,0,11.73-2.15,15.89-6.46s6.24-11.12,6.24-20.43c0-8.51-1.73-15.2-5.2-20.05s-7.97-7.28-13.52-7.28c-3.37,0-6.68.89-9.95,2.68-3.27,1.78-6.29,3.96-9.06,6.53v38.92c2.38,2.48,5.02,4.11,7.95,4.9,2.92.79,5.47,1.19,7.65,1.19Z"/>
    <path class="cls-2" d="M549.01,102.65c0,3.47.35,5.99,1.04,7.57.69,1.59,1.95,2.63,3.79,3.12,1.83.5,4.43.79,7.8.89v3.42h-33.42v-3.42c2.18-.1,3.91-.39,5.2-.89,1.29-.49,2.23-1.53,2.82-3.12.59-1.58.89-4.11.89-7.57V20.07c0-2.77-.42-4.55-1.26-5.35-.84-.79-1.96-1.19-3.34-1.19-1.29,0-2.65.2-4.09.59-1.44.39-2.75.89-3.94,1.48l-1.48-3.42,25.7-11.88.89.89c-.1.79-.22,2.92-.37,6.39-.15,3.47-.22,7.58-.22,12.33v82.73Z"/>
    <path class="cls-2" d="M592.85,102.65c0,3.47.35,5.99,1.04,7.57.69,1.59,1.95,2.63,3.79,3.12,1.83.5,4.43.79,7.8.89v3.42h-33.42v-3.42c2.18-.1,3.91-.39,5.2-.89,1.29-.49,2.23-1.53,2.82-3.12.59-1.58.89-4.11.89-7.57v-33.57c0-2.77-.42-4.58-1.26-5.42-.84-.84-1.95-1.26-3.34-1.26-1.29,0-2.65.22-4.09.67s-2.75.92-3.94,1.41l-1.49-3.42,25.7-11.74.89.89c-.1.8-.22,2.92-.37,6.39-.15,3.47-.22,7.57-.22,12.33v33.72ZM586.91,35.36c-2.18,0-4.01-.74-5.5-2.23-1.48-1.49-2.23-3.32-2.23-5.5s.74-3.86,2.23-5.35c1.49-1.48,3.32-2.23,5.5-2.23s4.01.74,5.5,2.23c1.49,1.49,2.23,3.27,2.23,5.35s-.74,4.01-2.23,5.5c-1.49,1.48-3.32,2.23-5.5,2.23Z"/>
    <path class="cls-2" d="M645.27,50.07c5.74,0,11.01,1.41,15.82,4.23,4.8,2.82,8.69,6.76,11.66,11.81,2.97,5.05,4.46,10.94,4.46,17.68,0,5.94-1.02,11.17-3.04,15.67-2.03,4.51-4.73,8.27-8.1,11.29-3.37,3.02-7.06,5.3-11.06,6.83-4.01,1.53-7.95,2.3-11.81,2.3-5.65,0-10.89-1.41-15.75-4.23-4.85-2.82-8.74-6.76-11.66-11.81-2.92-5.05-4.38-10.94-4.38-17.68,0-5.94,1.01-11.16,3.04-15.67,2.03-4.51,4.73-8.27,8.1-11.29,3.36-3.02,7.03-5.3,10.99-6.83s7.87-2.3,11.74-2.3ZM645.72,113.94c5.84,0,10.45-2.1,13.81-6.31,3.36-4.21,5.05-10.72,5.05-19.53,0-6.04-.92-11.49-2.75-16.34-1.83-4.85-4.38-8.69-7.65-11.51-3.27-2.82-7.08-4.23-11.44-4.23-5.74,0-10.3,2.1-13.66,6.31-3.37,4.21-5.05,10.72-5.05,19.53,0,5.94.92,11.34,2.75,16.19,1.83,4.85,4.38,8.71,7.65,11.58,3.27,2.87,7.03,4.31,11.29,4.31Z"/>
    <path class="cls-2" d="M710.58,152.56c-4.06,0-7.87-.5-11.44-1.49-3.57-.99-6.44-2.57-8.62-4.75-2.18-2.18-3.27-5.05-3.27-8.62,0-6.04,3.66-11.24,10.99-15.59l3.42.59c-1.29,1.88-2.28,3.94-2.97,6.16-.69,2.23-1.04,4.33-1.04,6.31,0,3.76,1.34,6.71,4.01,8.84,2.67,2.13,6.73,3.19,12.18,3.19,5.15,0,9.73-.89,13.74-2.67,4.01-1.78,7.2-4.16,9.58-7.13,2.38-2.97,3.57-6.19,3.57-9.65,0-2.28-.62-4.06-1.86-5.35-1.24-1.29-3.49-2.18-6.76-2.68l-31.64-5.35c-4.06-.79-6.09-3.51-6.09-8.17,0-2.57.87-5.25,2.6-8.02,1.73-2.77,4.33-5.55,7.8-8.32-4.06-1.29-7.53-3.39-10.4-6.31-2.87-2.92-4.31-6.76-4.31-11.51s1.34-8.47,4.01-11.73c2.67-3.27,6.14-5.8,10.4-7.58,4.26-1.78,8.76-2.68,13.52-2.68,3.46,0,6.93.5,10.4,1.49,3.47.99,6.44,2.52,8.91,4.6,2.47-.59,4.55-2.18,6.24-4.75,1.68-2.57,2.77-6.09,3.27-10.55h3.12c.89,1.09,1.56,2.5,2,4.23.45,1.73.67,3.3.67,4.68,0,2.97-.97,5.28-2.9,6.91-1.93,1.63-4.98,2.6-9.14,2.89,2.08,2.97,3.12,6.34,3.12,10.1,0,4.46-1.34,8.34-4.01,11.66-2.67,3.32-6.14,5.87-10.4,7.65-4.26,1.78-8.76,2.67-13.52,2.67-2.38,0-4.7-.25-6.98-.74-1.39,1.19-2.5,2.53-3.34,4.01s-1.26,2.97-1.26,4.46c0,1.09.32,2.08.96,2.97.64.89,1.61,1.44,2.9,1.63l30.89,5.2c4.46.69,7.87,2.06,10.25,4.09,2.38,2.03,3.57,4.98,3.57,8.84,0,3.46-.99,6.98-2.97,10.55-1.98,3.57-4.81,6.86-8.47,9.88-3.67,3.02-8.1,5.44-13.29,7.28-5.2,1.83-11.02,2.75-17.45,2.75ZM717.71,86.61c4.46,0,7.92-1.43,10.4-4.31,2.47-2.87,3.71-6.43,3.71-10.69,0-4.85-1.46-8.81-4.38-11.88-2.92-3.07-6.71-4.6-11.36-4.6s-7.92,1.41-10.4,4.23c-2.48,2.82-3.71,6.41-3.71,10.77,0,4.85,1.49,8.81,4.46,11.88,2.97,3.07,6.73,4.6,11.29,4.6Z"/>
    <path class="cls-2" d="M762.77,117.65v-3.42c2.28-.1,4.06-.39,5.35-.89,1.29-.49,2.2-1.53,2.75-3.12.54-1.58.82-4.11.82-7.57v-34.02c0-2.57-.4-4.25-1.19-5.05-.79-.79-1.88-1.19-3.27-1.19-1.09,0-2.15.12-3.19.37-1.04.25-2.1.62-3.19,1.11l-1.48-3.41,23.91-11.14.89.89c-.2.89-.42,2.8-.67,5.72-.25,2.92-.37,6.12-.37,9.58h.3c4.06-6.04,8.54-10.1,13.44-12.18,4.9-2.08,10.03-2.92,15.37-2.52.79,7.33.79,14.65,0,21.98h-3.42c-.4-4.06-1.31-6.91-2.75-8.54-1.44-1.63-3.44-2.45-6.02-2.45-3.27,0-6.19.69-8.76,2.08-2.58,1.39-5.15,3.67-7.72,6.83v31.94c0,3.47.35,5.99,1.04,7.57.69,1.59,2.05,2.63,4.08,3.12,2.03.5,5.02.79,8.99.89v3.42h-34.91Z"/>
    <path class="cls-2" d="M836.44,119.88c-4.66,0-8.44-1.21-11.36-3.64-2.92-2.43-4.38-5.92-4.38-10.47,0-3.66,1.14-7.03,3.42-10.1,2.28-3.07,6.04-5.89,11.29-8.47,5.25-2.57,12.38-4.95,21.39-7.13v-9.65c0-4.06-.87-7.43-2.6-10.1-1.73-2.68-5.03-4.01-9.88-4.01s-8.34,1.46-11.07,4.38c-2.73,2.92-4.63,7.45-5.72,13.59h-3.42v-18.57c3.46-1.68,7.15-3.05,11.07-4.09,3.91-1.04,8.24-1.56,13-1.56,5.44,0,9.63.72,12.55,2.16,2.92,1.44,4.98,3.44,6.16,6.01,1.19,2.58,1.78,5.6,1.78,9.06v35.95c0,5.25,1.63,7.87,4.9,7.87,1.19,0,2.55-.39,4.09-1.19,1.53-.79,3.34-2.43,5.42-4.9l2.38,2.38c-4.56,7.82-10,11.73-16.34,11.73s-10.55-3.32-12.03-9.95h-.3c-5.45,7.13-12.23,10.69-20.35,10.69ZM841.94,111.12c4.75,0,9.71-2.18,14.85-6.54v-19.9c-7.13,1.78-12.38,3.74-15.75,5.87-3.37,2.13-5.57,4.26-6.61,6.39-1.04,2.13-1.56,4.08-1.56,5.87,0,2.87.89,4.98,2.67,6.31,1.78,1.34,3.91,2.01,6.39,2.01Z"/>
    <path class="cls-2" d="M893.47,117.65v-3.42c2.18-.1,3.91-.39,5.2-.89,1.29-.49,2.23-1.53,2.82-3.12.59-1.58.89-4.11.89-7.57v-44.27h-10.25v-6.09h10.25v-10.55c0-9.8,2.25-17.92,6.76-24.36,4.51-6.43,10.72-11.11,18.64-14.04,7.92-2.92,16.88-3.93,26.88-3.04,1.19,6.83,1.19,13.67,0,20.5h-3.42c-.5-4.55-1.76-7.97-3.79-10.25-2.03-2.28-5.52-3.42-10.47-3.42-6.64,0-12.11,2.87-16.41,8.62-4.31,5.74-6.46,14.56-6.46,26.44v10.1h17.23c3.07,0,6.39-.15,9.95-.45,3.56-.3,7.03-.69,10.4-1.19,3.36-.5,6.19-.99,8.47-1.49l.89.89c-.1.8-.22,2.9-.37,6.31s-.22,7.45-.22,12.1v34.17c0,3.47.32,5.99.96,7.57.64,1.59,1.88,2.63,3.71,3.12,1.83.5,4.48.79,7.95.89v3.42h-33.42v-3.42c2.18-.1,3.91-.39,5.2-.89,1.29-.49,2.23-1.53,2.82-3.12.6-1.58.89-4.11.89-7.57v-37.88c0-2.57-.55-4.28-1.63-5.12-1.09-.84-3.12-1.27-6.09-1.27h-22.13c-1.68,0-2.87.35-3.57,1.04-.69.69-1.04,1.88-1.04,3.57v39.66c0,3.47.27,5.99.82,7.57.54,1.59,1.49,2.63,2.82,3.12,1.34.5,3.09.79,5.27.89v3.42h-29.56Z"/>
    <path class="cls-2" d="M999.95,119.88c-4.66,0-8.44-1.21-11.36-3.64-2.92-2.43-4.38-5.92-4.38-10.47,0-3.66,1.14-7.03,3.42-10.1,2.28-3.07,6.04-5.89,11.29-8.47,5.25-2.57,12.38-4.95,21.39-7.13v-9.65c0-4.06-.87-7.43-2.6-10.1-1.73-2.68-5.03-4.01-9.88-4.01s-8.34,1.46-11.07,4.38c-2.73,2.92-4.63,7.45-5.72,13.59h-3.42v-18.57c3.46-1.68,7.15-3.05,11.07-4.09,3.91-1.04,8.24-1.56,13-1.56,5.44,0,9.63.72,12.55,2.16,2.92,1.44,4.98,3.44,6.16,6.01,1.19,2.58,1.78,5.6,1.78,9.06v35.95c0,5.25,1.63,7.87,4.9,7.87,1.19,0,2.55-.39,4.09-1.19,1.53-.79,3.34-2.43,5.42-4.9l2.38,2.38c-4.56,7.82-10,11.73-16.34,11.73s-10.55-3.32-12.03-9.95h-.3c-5.45,7.13-12.23,10.69-20.35,10.69ZM1005.45,111.12c4.75,0,9.71-2.18,14.85-6.54v-19.9c-7.13,1.78-12.38,3.74-15.75,5.87-3.37,2.13-5.57,4.26-6.61,6.39-1.04,2.13-1.56,4.08-1.56,5.87,0,2.87.89,4.98,2.67,6.31,1.78,1.34,3.91,2.01,6.39,2.01Z"/>
    <path class="cls-2" d="M531.56,268.57l1.49,3.41-24.21,11.14-.89-.89c.2-.89.42-2.65.67-5.27.25-2.62.37-5.42.37-8.39h-.15c-2.58,3.66-5.82,6.86-9.73,9.58-3.91,2.72-8.59,4.08-14.04,4.08-4.66,0-8.99-1.21-13-3.64-4.01-2.43-7.23-5.96-9.65-10.62-2.43-4.65-3.64-10.3-3.64-16.93s1.11-11.91,3.34-16.71c2.23-4.8,5.2-8.84,8.91-12.1,3.71-3.27,7.82-5.72,12.33-7.35,4.5-1.63,9.03-2.45,13.59-2.45s8.47.45,11.73,1.34v-31.34c0-2.77-.42-4.55-1.26-5.35-.84-.79-1.96-1.19-3.34-1.19-1.29,0-2.65.2-4.08.59-1.44.39-2.75.89-3.94,1.48l-1.49-3.42,25.7-11.88.89.89c-.1.79-.22,2.92-.37,6.39-.15,3.47-.22,7.58-.22,12.33v81.1c0,2.78.42,4.56,1.26,5.35.84.79,1.95,1.19,3.34,1.19,2.08,0,4.21-.45,6.39-1.34ZM489.68,273.32c3.47,0,6.81-.89,10.03-2.68,3.22-1.78,6.21-3.96,8.98-6.53v-38.92c-2.38-2.57-5.03-4.23-7.95-4.98-2.92-.74-5.47-1.11-7.65-1.11-6.34,0-11.61,2.15-15.82,6.46-4.21,4.31-6.31,11.12-6.31,20.43,0,8.52,1.73,15.2,5.2,20.05,3.47,4.85,7.97,7.28,13.52,7.28Z"/>
    <path class="cls-2" d="M542.08,280.01v-3.42c2.28-.1,4.06-.39,5.35-.89,1.29-.49,2.2-1.53,2.75-3.12.54-1.58.82-4.11.82-7.57v-34.02c0-2.57-.4-4.25-1.19-5.05-.79-.79-1.88-1.19-3.27-1.19-1.09,0-2.15.12-3.19.37-1.04.25-2.1.62-3.19,1.11l-1.48-3.41,23.91-11.14.89.89c-.2.89-.42,2.8-.67,5.72-.25,2.92-.37,6.12-.37,9.58h.3c4.06-6.04,8.54-10.1,13.44-12.18,4.9-2.08,10.03-2.92,15.37-2.52.79,7.33.79,14.65,0,21.98h-3.42c-.4-4.06-1.31-6.91-2.75-8.54-1.44-1.63-3.44-2.45-6.02-2.45-3.27,0-6.19.69-8.76,2.08-2.58,1.39-5.15,3.67-7.72,6.83v31.94c0,3.47.35,5.99,1.04,7.57.69,1.59,2.05,2.63,4.08,3.12,2.03.5,5.02.79,8.99.89v3.42h-34.91Z"/>
    <path class="cls-2" d="M677.14,268.57l1.48,3.41-24.06,11.14-.89-.89c.2-.89.42-2.65.67-5.27.25-2.62.37-5.42.37-8.39h-.3c-3.86,3.96-7.85,7.23-11.96,9.8-4.11,2.57-8.74,3.86-13.89,3.86-6.24,0-10.57-1.58-13-4.75-2.43-3.17-3.64-7.28-3.64-12.33v-34.17c0-2.57-.42-4.25-1.26-5.05-.84-.79-1.96-1.19-3.34-1.19-1.98,0-4.11.5-6.39,1.48l-1.49-3.41,24.06-11.14.89.89c-.1.8-.22,2.9-.37,6.31s-.22,7.4-.22,11.96v30.6c0,3.47.72,6.19,2.15,8.17,1.43,1.98,4.03,2.97,7.8,2.97,3.17,0,6.46-.67,9.88-2,3.42-1.34,6.96-3.49,10.62-6.46v-33.13c0-2.57-.4-4.25-1.19-5.05-.79-.79-1.93-1.19-3.42-1.19-1.29,0-2.62.22-4.01.67-1.39.45-2.62.92-3.71,1.41l-1.49-3.42,25.4-11.74.89.89c-.1.8-.22,2.9-.37,6.31-.15,3.42-.22,7.4-.22,11.96v32.53c0,2.78.42,4.56,1.26,5.35s1.95,1.19,3.34,1.19c2.18,0,4.31-.45,6.39-1.34Z"/>
    <path class="cls-2" d="M707.81,265.01c0,3.47.3,5.99.89,7.57.59,1.59,1.53,2.63,2.82,3.12,1.29.5,3.02.79,5.2.89v3.42h-29.71v-3.42c2.28-.1,4.06-.39,5.35-.89,1.29-.49,2.2-1.53,2.75-3.12.54-1.58.82-4.11.82-7.57v-82.59c0-2.77-.4-4.55-1.19-5.35-.79-.79-1.93-1.19-3.42-1.19-1.29,0-2.65.2-4.09.59-1.44.39-2.75.89-3.94,1.48l-1.48-3.42,25.7-11.88.89.89c-.1.79-.22,2.92-.37,6.39-.15,3.47-.22,7.58-.22,12.33v66.25h.3l18.27-20.2c1.88-1.98,3.14-3.44,3.79-4.38.64-.94.97-1.8.97-2.6s-.45-1.48-1.34-2.08c-.89-.59-3.22-.99-6.98-1.19v-3.42h29.71v3.42c-3.67.2-6.61.87-8.84,2-2.23,1.14-4.63,3.1-7.2,5.87l-10.99,11.88,17.53,26.89c2.38,3.47,4.41,6.07,6.09,7.8,1.68,1.73,3.39,2.85,5.12,3.34,1.73.5,3.69.74,5.87.74v3.42c-2.48.59-4.95.89-7.43.89-5.35,0-9.56-1.06-12.62-3.19-3.07-2.13-5.74-4.83-8.02-8.1l-15.15-22.58-9.06,9.8v8.17Z"/>
    <path class="cls-2" d="M796.74,212.42c5.74,0,11.01,1.41,15.82,4.23,4.8,2.82,8.69,6.76,11.66,11.81,2.97,5.05,4.46,10.94,4.46,17.68,0,5.94-1.02,11.17-3.04,15.67-2.03,4.51-4.73,8.27-8.1,11.29-3.37,3.02-7.06,5.3-11.06,6.83-4.01,1.53-7.95,2.3-11.81,2.3-5.65,0-10.89-1.41-15.75-4.23-4.85-2.82-8.74-6.76-11.66-11.81-2.92-5.05-4.38-10.94-4.38-17.68,0-5.94,1.01-11.16,3.04-15.67,2.03-4.51,4.73-8.27,8.1-11.29,3.36-3.02,7.03-5.3,10.99-6.83s7.87-2.3,11.74-2.3ZM797.18,276.29c5.84,0,10.45-2.1,13.81-6.31,3.36-4.21,5.05-10.72,5.05-19.53,0-6.04-.92-11.49-2.75-16.34-1.83-4.85-4.38-8.69-7.65-11.51-3.27-2.82-7.08-4.23-11.44-4.23-5.74,0-10.3,2.1-13.66,6.31-3.37,4.21-5.05,10.72-5.05,19.53,0,5.94.92,11.34,2.75,16.19,1.83,4.85,4.38,8.71,7.65,11.58,3.27,2.87,7.03,4.31,11.29,4.31ZM802.83,170.98c1.78-.1,3.74.22,5.87.96,2.13.74,3.84,1.86,5.12,3.34-2.18,4.46-5.35,8.99-9.51,13.59s-8.52,8.35-13.07,11.22l-1.63-2.82c3.47-3.76,6.31-7.99,8.54-12.7,2.23-4.7,3.79-9.23,4.68-13.59Z"/>
    <path class="cls-2" d="M863.38,281.19c-.69-2.57-1.34-4.75-1.93-6.53-.59-1.78-1.44-3.91-2.52-6.39l-15.75-39.06c-1.29-3.37-2.48-5.79-3.56-7.28-1.09-1.48-2.28-2.47-3.57-2.97s-2.87-.79-4.75-.89v-3.42h29.86v3.42c-2.87.1-4.9.42-6.09.96-1.19.55-1.66,1.59-1.41,3.12.25,1.53.96,3.89,2.15,7.05l13.52,34.01h.3l13.37-33.27-.3-.74c-1.29-3.37-2.45-5.79-3.49-7.28-1.04-1.48-2.08-2.47-3.12-2.97-1.04-.5-2.21-.79-3.49-.89v-3.42h28.22v3.42c-2.97.1-5.08.42-6.31.96-1.24.55-1.78,1.59-1.63,3.12s.82,3.89,2.01,7.05l13.07,34.01h.3l12.62-34.01c1.68-4.65,1.91-7.62.67-8.91-1.24-1.29-4.33-2.03-9.28-2.23v-3.42h26.29v3.42c-2.48.2-4.51.94-6.09,2.23-1.59,1.29-3.27,4.26-5.05,8.91l-14.71,39.06c-.99,2.68-1.76,4.85-2.3,6.54-.54,1.68-1.06,3.81-1.56,6.39h-6.54c-.69-2.57-1.39-4.75-2.08-6.53-.69-1.78-1.54-3.91-2.52-6.39l-11.59-30.15-12.18,30.15c-1.09,2.68-1.91,4.85-2.45,6.54-.55,1.68-1.11,3.81-1.71,6.39h-6.39Z"/>
    <path class="cls-2" d="M492.65,374.77c5.74,0,11.01,1.41,15.82,4.23,4.8,2.82,8.69,6.76,11.66,11.81,2.97,5.05,4.46,10.94,4.46,17.68,0,5.94-1.02,11.17-3.04,15.67-2.03,4.51-4.73,8.27-8.1,11.29-3.37,3.02-7.06,5.3-11.06,6.83-4.01,1.53-7.95,2.3-11.81,2.3-5.65,0-10.89-1.41-15.75-4.23-4.85-2.82-8.74-6.76-11.66-11.81-2.92-5.05-4.38-10.94-4.38-17.68,0-5.94,1.01-11.16,3.04-15.67,2.03-4.51,4.73-8.27,8.1-11.29,3.36-3.02,7.03-5.3,10.99-6.83,3.96-1.53,7.87-2.3,11.74-2.3ZM493.09,438.64c5.84,0,10.45-2.1,13.81-6.31,3.36-4.21,5.05-10.72,5.05-19.53,0-6.04-.92-11.49-2.75-16.34-1.83-4.85-4.38-8.69-7.65-11.51-3.27-2.82-7.08-4.23-11.44-4.23-5.74,0-10.3,2.1-13.66,6.31-3.37,4.21-5.05,10.72-5.05,19.53,0,5.94.92,11.34,2.75,16.19,1.83,4.85,4.38,8.71,7.65,11.58,3.27,2.87,7.03,4.31,11.29,4.31Z"/>
    <path class="cls-2" d="M554.3,427.36c0,3.47.3,5.99.89,7.57.59,1.59,1.53,2.63,2.82,3.12,1.29.5,3.02.79,5.2.89v3.42h-29.71v-3.42c2.28-.1,4.06-.39,5.35-.89,1.29-.49,2.2-1.53,2.75-3.12.54-1.58.82-4.11.82-7.57v-82.59c0-2.77-.4-4.55-1.19-5.35-.79-.79-1.93-1.19-3.42-1.19-1.29,0-2.65.2-4.09.59-1.44.39-2.75.89-3.94,1.48l-1.48-3.42,25.7-11.88.89.89c-.1.79-.22,2.92-.37,6.39-.15,3.47-.22,7.58-.22,12.33v66.25h.3l18.27-20.2c1.88-1.98,3.14-3.44,3.79-4.38.64-.94.97-1.8.97-2.6s-.45-1.48-1.34-2.08c-.89-.59-3.22-.99-6.98-1.19v-3.42h29.71v3.42c-3.67.2-6.61.87-8.84,2-2.23,1.14-4.63,3.1-7.2,5.87l-10.99,11.88,17.53,26.89c2.38,3.47,4.41,6.07,6.09,7.8,1.68,1.73,3.39,2.85,5.12,3.34,1.73.5,3.69.74,5.87.74v3.42c-2.48.59-4.95.89-7.43.89-5.35,0-9.56-1.06-12.62-3.19-3.07-2.13-5.74-4.83-8.02-8.1l-15.15-22.58-9.06,9.8v8.17Z"/>
    <path class="cls-2" d="M643.23,374.77c5.74,0,11.01,1.41,15.82,4.23,4.8,2.82,8.69,6.76,11.66,11.81,2.97,5.05,4.46,10.94,4.46,17.68,0,5.94-1.02,11.17-3.04,15.67-2.03,4.51-4.73,8.27-8.1,11.29-3.37,3.02-7.06,5.3-11.06,6.83-4.01,1.53-7.95,2.3-11.81,2.3-5.65,0-10.89-1.41-15.75-4.23-4.85-2.82-8.74-6.76-11.66-11.81-2.92-5.05-4.38-10.94-4.38-17.68,0-5.94,1.01-11.16,3.04-15.67,2.03-4.51,4.73-8.27,8.1-11.29,3.36-3.02,7.03-5.3,10.99-6.83s7.87-2.3,11.74-2.3ZM643.67,438.64c5.84,0,10.45-2.1,13.81-6.31,3.36-4.21,5.05-10.72,5.05-19.53,0-6.04-.92-11.49-2.75-16.34-1.83-4.85-4.38-8.69-7.65-11.51-3.27-2.82-7.08-4.23-11.44-4.23-5.74,0-10.3,2.1-13.66,6.31-3.37,4.21-5.05,10.72-5.05,19.53,0,5.94.92,11.34,2.75,16.19,1.83,4.85,4.38,8.71,7.65,11.58,3.27,2.87,7.03,4.31,11.29,4.31Z"/>
    <path class="cls-2" d="M704.88,427.36c0,3.47.35,5.99,1.04,7.57.69,1.59,1.95,2.63,3.79,3.12,1.83.5,4.43.79,7.8.89v3.42h-33.42v-3.42c2.18-.1,3.91-.39,5.2-.89,1.29-.49,2.23-1.53,2.82-3.12.59-1.58.89-4.11.89-7.57v-82.59c0-2.77-.42-4.55-1.26-5.35-.84-.79-1.96-1.19-3.34-1.19-1.29,0-2.65.2-4.09.59-1.44.39-2.75.89-3.94,1.48l-1.48-3.42,25.7-11.88.89.89c-.1.79-.22,2.92-.37,6.39-.15,3.47-.22,7.58-.22,12.33v82.73Z"/>
    <path class="cls-2" d="M748.73,427.36c0,3.47.35,5.99,1.04,7.57.69,1.59,1.95,2.63,3.79,3.12,1.83.5,4.43.79,7.8.89v3.42h-33.42v-3.42c2.18-.1,3.91-.39,5.2-.89,1.29-.49,2.23-1.53,2.82-3.12.59-1.58.89-4.11.89-7.57v-33.57c0-2.77-.42-4.58-1.26-5.42-.84-.84-1.95-1.26-3.34-1.26-1.29,0-2.65.22-4.09.67s-2.75.92-3.94,1.41l-1.49-3.42,25.7-11.74.89.89c-.1.8-.22,2.92-.37,6.39-.15,3.47-.22,7.57-.22,12.33v33.72ZM742.79,360.07c-2.18,0-4.01-.74-5.5-2.23-1.48-1.49-2.23-3.32-2.23-5.5s.74-3.86,2.23-5.35c1.49-1.48,3.32-2.23,5.5-2.23s4.01.74,5.5,2.23c1.49,1.49,2.23,3.27,2.23,5.35s-.74,4.01-2.23,5.5c-1.49,1.48-3.32,2.23-5.5,2.23Z"/>
    <path class="cls-2" d="M797.43,444.59c-5.15,0-10.03-1.21-14.63-3.64-4.6-2.43-8.34-6.09-11.21-10.99-2.87-4.9-4.31-11.01-4.31-18.34,0-7.82,1.66-14.48,4.98-19.98,3.32-5.5,7.7-9.68,13.15-12.55,5.44-2.87,11.24-4.31,17.38-4.31,3.07,0,6.41.4,10.03,1.19,3.61.79,6.85,2.18,9.73,4.16v19.46h-3.42c-.5-5.15-1.78-9.11-3.86-11.88-2.08-2.77-4.48-4.7-7.2-5.79-2.73-1.09-5.42-1.63-8.1-1.63-6.54,0-11.59,2.45-15.15,7.35-3.56,4.9-5.35,11.02-5.35,18.34,0,5.85,1.02,10.92,3.05,15.22,2.03,4.31,4.83,7.65,8.39,10.03,3.57,2.37,7.57,3.56,12.03,3.56,3.47,0,6.91-.77,10.32-2.3,3.42-1.53,6.51-3.64,9.28-6.31l2.38,2.37c-2.77,4.66-6.54,8.49-11.29,11.51-4.75,3.02-10.15,4.53-16.19,4.53Z"/>
    <path class="cls-2" d="M833.99,442.36v-3.42c1.09-1.19,2.18-2.45,3.27-3.79,1.09-1.34,2.08-2.65,2.97-3.93l34.31-49.17v-.45l-18.86.59c-4.06.1-7.08.77-9.06,2-1.98,1.24-3.29,3-3.94,5.28-.64,2.28-1.06,5.15-1.26,8.61h-3.42v-21.09h52.73v3.42c-.99,1.09-2.06,2.33-3.19,3.71-1.14,1.39-2.15,2.73-3.05,4.01l-34.46,49.17v.45l20.05-.59c4.85-.1,8.64-.91,11.36-2.45,2.72-1.53,4.7-3.54,5.94-6.01,1.24-2.47,2-5.2,2.3-8.17h3.42l-1.19,21.84h-57.93Z"/>
    <path class="cls-2" d="M968.31,427.36c0,3.47.32,5.99.96,7.57.64,1.59,1.88,2.63,3.71,3.12,1.83.5,4.48.79,7.95.89v3.42h-33.42v-3.42c2.18-.1,3.91-.39,5.2-.89,1.29-.49,2.23-1.53,2.82-3.12.6-1.58.89-4.11.89-7.57v-31.94c0-3.46-.77-6.19-2.3-8.17-1.54-1.98-4.18-2.97-7.95-2.97-3.27,0-6.68.69-10.25,2.08-3.57,1.39-7.23,3.57-10.99,6.53v34.46c0,3.47.32,5.99.97,7.57.64,1.59,1.88,2.63,3.71,3.12,1.83.5,4.48.79,7.95.89v3.42h-33.42v-3.42c2.28-.1,4.06-.39,5.35-.89,1.29-.49,2.2-1.53,2.75-3.12.54-1.58.82-4.11.82-7.57v-33.72c0-2.68-.4-4.43-1.19-5.28-.79-.84-1.88-1.26-3.27-1.26-1.09,0-2.15.12-3.19.37-1.04.25-2.1.62-3.19,1.11l-1.48-3.41,23.91-11.14.89.89c-.2.89-.42,2.63-.67,5.2-.25,2.57-.37,5.3-.37,8.17h.3c3.76-3.96,7.85-7.2,12.25-9.73,4.41-2.52,9.18-3.79,14.33-3.79,6.34,0,10.74,1.56,13.22,4.68,2.47,3.12,3.71,7.26,3.71,12.4v35.5Z"/>
    <path class="cls-2" d="M1020.07,374.77c5.74,0,11.01,1.41,15.82,4.23,4.8,2.82,8.69,6.76,11.66,11.81,2.97,5.05,4.46,10.94,4.46,17.68,0,5.94-1.02,11.17-3.04,15.67-2.03,4.51-4.73,8.27-8.1,11.29-3.37,3.02-7.06,5.3-11.06,6.83-4.01,1.53-7.95,2.3-11.81,2.3-5.65,0-10.89-1.41-15.75-4.23-4.85-2.82-8.74-6.76-11.66-11.81-2.92-5.05-4.38-10.94-4.38-17.68,0-5.94,1.01-11.16,3.04-15.67,2.03-4.51,4.73-8.27,8.1-11.29,3.36-3.02,7.03-5.3,10.99-6.83s7.87-2.3,11.74-2.3ZM1020.52,438.64c5.84,0,10.45-2.1,13.81-6.31,3.36-4.21,5.05-10.72,5.05-19.53,0-6.04-.92-11.49-2.75-16.34-1.83-4.85-4.38-8.69-7.65-11.51-3.27-2.82-7.08-4.23-11.44-4.23-5.74,0-10.3,2.1-13.66,6.31-3.37,4.21-5.05,10.72-5.05,19.53,0,5.94.92,11.34,2.75,16.19,1.83,4.85,4.38,8.71,7.65,11.58,3.27,2.87,7.03,4.31,11.29,4.31Z"/>
    <path class="cls-2" d="M1086.2,444.59c-7.03,0-12.43-1.34-16.19-4.01-3.76-2.68-5.64-6.09-5.64-10.25,0-1.48.3-3.14.89-4.98.59-1.83,1.63-3.64,3.12-5.42h3.42c.1,6.34,1.43,11.19,4.01,14.56,2.57,3.37,6.63,5.05,12.18,5.05,4.95,0,8.62-1.19,10.99-3.56,2.38-2.38,3.56-5.1,3.56-8.17,0-2.77-.87-5.05-2.6-6.83-1.73-1.78-3.96-3.34-6.68-4.68-2.72-1.34-5.62-2.62-8.69-3.86-3.07-1.24-5.97-2.62-8.69-4.16-2.73-1.53-4.95-3.44-6.68-5.72-1.73-2.28-2.6-5.15-2.6-8.61,0-5.44,2.18-10,6.54-13.67,4.35-3.66,10.45-5.5,18.27-5.5,3.07,0,6.19.28,9.36.82,3.17.54,6.14,1.61,8.91,3.19v17.08h-3.42c-.69-5.84-2.58-9.97-5.65-12.4-3.07-2.43-6.68-3.64-10.84-3.64s-7.13.89-9.21,2.67c-2.08,1.78-3.12,4.11-3.12,6.98,0,2.67.87,4.88,2.6,6.61,1.73,1.73,3.96,3.25,6.68,4.53,2.72,1.29,5.59,2.55,8.62,3.79,3.02,1.24,5.89,2.67,8.62,4.31,2.72,1.63,4.95,3.66,6.68,6.09,1.73,2.43,2.6,5.47,2.6,9.14,0,6.64-2.58,11.74-7.72,15.3-5.15,3.57-11.59,5.35-19.31,5.35ZM1097.19,333.34c1.78-.1,3.74.22,5.87.96,2.13.74,3.84,1.86,5.13,3.34-2.18,4.46-5.35,8.99-9.51,13.59-4.16,4.6-8.52,8.35-13.07,11.22l-1.63-2.82c3.47-3.76,6.31-7.99,8.54-12.7,2.23-4.7,3.79-9.23,4.68-13.59Z"/>
    <path class="cls-2" d="M1156.04,444.59c-5.15,0-10.03-1.21-14.63-3.64-4.6-2.43-8.34-6.09-11.21-10.99-2.87-4.9-4.31-11.01-4.31-18.34,0-7.82,1.66-14.48,4.98-19.98,3.32-5.5,7.7-9.68,13.15-12.55,5.44-2.87,11.24-4.31,17.38-4.31,3.07,0,6.41.4,10.03,1.19,3.61.79,6.85,2.18,9.73,4.16v19.46h-3.42c-.5-5.15-1.78-9.11-3.86-11.88-2.08-2.77-4.48-4.7-7.2-5.79-2.73-1.09-5.42-1.63-8.1-1.63-6.54,0-11.59,2.45-15.15,7.35-3.56,4.9-5.35,11.02-5.35,18.34,0,5.85,1.02,10.92,3.05,15.22,2.03,4.31,4.83,7.65,8.39,10.03,3.57,2.37,7.57,3.56,12.03,3.56,3.47,0,6.91-.77,10.32-2.3,3.42-1.53,6.51-3.64,9.28-6.31l2.38,2.37c-2.77,4.66-6.54,8.49-11.29,11.51-4.75,3.02-10.15,4.53-16.19,4.53Z"/>
    <path class="cls-2" d="M1217.56,427.36c0,3.47.35,5.99,1.04,7.57.69,1.59,1.95,2.63,3.79,3.12,1.83.5,4.43.79,7.8.89v3.42h-33.42v-3.42c2.18-.1,3.91-.39,5.2-.89,1.29-.49,2.23-1.53,2.82-3.12.59-1.58.89-4.11.89-7.57v-33.57c0-2.77-.42-4.58-1.26-5.42-.84-.84-1.95-1.26-3.34-1.26-1.29,0-2.65.22-4.09.67s-2.75.92-3.94,1.41l-1.49-3.42,25.7-11.74.89.89c-.1.8-.22,2.92-.37,6.39-.15,3.47-.22,7.57-.22,12.33v33.72ZM1211.62,360.07c-2.18,0-4.01-.74-5.5-2.23-1.48-1.49-2.23-3.32-2.23-5.5s.74-3.86,2.23-5.35c1.49-1.48,3.32-2.23,5.5-2.23s4.01.74,5.5,2.23c1.49,1.49,2.23,3.27,2.23,5.35s-.74,4.01-2.23,5.5c-1.49,1.48-3.32,2.23-5.5,2.23Z"/>
    <path class="cls-2" d="M1269.98,374.77c5.74,0,11.01,1.41,15.82,4.23,4.8,2.82,8.69,6.76,11.66,11.81,2.97,5.05,4.46,10.94,4.46,17.68,0,5.94-1.02,11.17-3.04,15.67-2.03,4.51-4.73,8.27-8.1,11.29-3.37,3.02-7.06,5.3-11.06,6.83-4.01,1.53-7.95,2.3-11.81,2.3-5.65,0-10.89-1.41-15.75-4.23-4.85-2.82-8.74-6.76-11.66-11.81-2.92-5.05-4.38-10.94-4.38-17.68,0-5.94,1.01-11.16,3.04-15.67,2.03-4.51,4.73-8.27,8.1-11.29,3.36-3.02,7.03-5.3,10.99-6.83s7.87-2.3,11.74-2.3ZM1270.42,438.64c5.84,0,10.45-2.1,13.81-6.31,3.36-4.21,5.05-10.72,5.05-19.53,0-6.04-.92-11.49-2.75-16.34-1.83-4.85-4.38-8.69-7.65-11.51-3.27-2.82-7.08-4.23-11.44-4.23-5.74,0-10.3,2.1-13.66,6.31-3.37,4.21-5.05,10.72-5.05,19.53,0,5.94.92,11.34,2.75,16.19,1.83,4.85,4.38,8.71,7.65,11.58,3.27,2.87,7.03,4.31,11.29,4.31Z"/>
    <path class="cls-2" d="M1336.62,443.55c-.69-2.57-1.34-4.75-1.93-6.53-.59-1.78-1.44-3.91-2.52-6.39l-15.75-39.06c-1.29-3.37-2.48-5.79-3.56-7.28-1.09-1.48-2.28-2.47-3.57-2.97s-2.87-.79-4.75-.89v-3.42h29.86v3.42c-2.87.1-4.9.42-6.09.96-1.19.55-1.66,1.59-1.41,3.12.25,1.53.96,3.89,2.15,7.05l13.52,34.01h.3l13.37-33.27-.3-.74c-1.29-3.37-2.45-5.79-3.49-7.28-1.04-1.48-2.08-2.47-3.12-2.97-1.04-.5-2.21-.79-3.49-.89v-3.42h28.22v3.42c-2.97.1-5.08.42-6.31.96-1.24.55-1.78,1.59-1.63,3.12s.82,3.89,2.01,7.05l13.07,34.01h.3l12.62-34.01c1.68-4.65,1.91-7.62.67-8.91-1.24-1.29-4.33-2.03-9.28-2.23v-3.42h26.29v3.42c-2.48.2-4.51.94-6.09,2.23-1.59,1.29-3.27,4.26-5.05,8.91l-14.71,39.06c-.99,2.68-1.76,4.85-2.3,6.54-.54,1.68-1.06,3.81-1.56,6.39h-6.54c-.69-2.57-1.39-4.75-2.08-6.53-.69-1.78-1.54-3.91-2.52-6.39l-11.59-30.15-12.18,30.15c-1.09,2.68-1.91,4.85-2.45,6.54-.55,1.68-1.11,3.81-1.71,6.39h-6.39Z"/>
    <path class="cls-2" d="M1427.78,477.27c-3.37,0-6.04-1.07-8.02-3.19-1.98-2.13-2.97-5.08-2.97-8.84,0-1.69.2-3.37.59-5.05.39-1.69.94-3.42,1.63-5.2h3.42c.3,4.26,1.04,7.42,2.23,9.51,1.19,2.08,3.12,3.12,5.79,3.12,2.97,0,6.06-2.25,9.28-6.76,3.22-4.51,6.95-11.06,11.21-19.68l-22.13-49.61c-1.49-3.37-2.8-5.79-3.94-7.28-1.14-1.48-2.33-2.47-3.56-2.97-1.24-.5-2.75-.79-4.53-.89v-3.42h31.64v3.42c-3.27.1-5.57.42-6.91.96-1.34.55-1.91,1.59-1.71,3.12.2,1.53.94,3.89,2.23,7.05l14.85,34.16h.3l13.81-34.16c1.98-4.65,2.28-7.62.89-8.91-1.39-1.29-4.7-2.03-9.95-2.23v-3.42h26.44v3.42c-1.49.1-2.82.42-4.01.96-1.19.55-2.3,1.59-3.34,3.12-1.04,1.53-2.2,3.89-3.49,7.05l-15.89,39.06c-4.16,10.3-7.9,18.91-11.21,25.85-3.32,6.93-6.73,12.13-10.25,15.59-3.52,3.47-7.65,5.2-12.4,5.2Z"/>
    <path class="cls-2" d="M1520.88,444.59c-5.15,0-10.03-1.21-14.63-3.64-4.6-2.43-8.34-6.09-11.21-10.99-2.87-4.9-4.31-11.01-4.31-18.34,0-7.82,1.66-14.48,4.98-19.98,3.32-5.5,7.7-9.68,13.15-12.55,5.44-2.87,11.24-4.31,17.38-4.31,3.07,0,6.41.4,10.03,1.19,3.61.79,6.85,2.18,9.73,4.16v19.46h-3.42c-.5-5.15-1.78-9.11-3.86-11.88-2.08-2.77-4.48-4.7-7.2-5.79-2.73-1.09-5.42-1.63-8.1-1.63-6.54,0-11.59,2.45-15.15,7.35-3.56,4.9-5.35,11.02-5.35,18.34,0,5.85,1.02,10.92,3.05,15.22,2.03,4.31,4.83,7.65,8.39,10.03,3.57,2.37,7.57,3.56,12.03,3.56,3.47,0,6.91-.77,10.32-2.3,3.42-1.53,6.51-3.64,9.28-6.31l2.38,2.37c-2.77,4.66-6.54,8.49-11.29,11.51-4.75,3.02-10.15,4.53-16.19,4.53Z"/>
    <path class="cls-2" d="M1621.27,427.36c0,3.47.32,5.99.97,7.57.64,1.59,1.88,2.63,3.71,3.12,1.83.5,4.43.79,7.8.89v3.42h-33.27v-3.42c2.28-.1,4.06-.39,5.35-.89,1.29-.49,2.2-1.53,2.75-3.12.54-1.58.82-4.11.82-7.57v-31.94c0-3.46-.74-6.19-2.23-8.17-1.48-1.98-4.16-2.97-8.02-2.97-3.17,0-6.56.69-10.18,2.08-3.61,1.39-7.3,3.57-11.06,6.53v34.46c0,3.47.35,5.99,1.04,7.57.69,1.59,1.95,2.63,3.79,3.12,1.83.5,4.43.79,7.8.89v3.42h-33.42v-3.42c2.28-.1,4.06-.39,5.35-.89,1.29-.49,2.2-1.53,2.75-3.12.54-1.58.82-4.11.82-7.57v-82.59c0-2.77-.4-4.55-1.19-5.35-.79-.79-1.93-1.19-3.42-1.19-1.29,0-2.65.2-4.09.59-1.44.39-2.75.89-3.94,1.48l-1.48-3.42,25.7-11.88.89.89c-.1.79-.22,2.92-.37,6.39-.15,3.47-.22,7.58-.22,12.33v43.67c3.86-3.96,7.97-7.2,12.33-9.73,4.36-2.52,9.11-3.79,14.26-3.79,6.14,0,10.47,1.56,13,4.68,2.52,3.12,3.79,7.26,3.79,12.4v35.5Z"/>
  </g>
</svg>